<svg id="Livello_2" data-name="Livello 2" xmlns="http://www.w3.org/2000/svg" xmlns:xlink="http://www.w3.org/1999/xlink" viewBox="0 0 1920 1068.6"><defs><style>.cls-1{fill:url(#Sfumatura_senza_nome_104);}.cls-2{fill:url(#Sfumatura_senza_nome_101);}.cls-3{fill:url(#Sfumatura_senza_nome_99);}.cls-4{fill:url(#Sfumatura_senza_nome_102);}.cls-5{fill:url(#Sfumatura_senza_nome_41);}.cls-6{fill:url(#Sfumatura_senza_nome_104-2);}</style><linearGradient id="Sfumatura_senza_nome_104" x1="1002.51" y1="1038.95" x2="898.63" y2="-194.2" gradientUnits="userSpaceOnUse"><stop offset="0" stop-color="#7895f9"/><stop offset="0.52" stop-color="#6f7cec"/><stop offset="0.74" stop-color="#656edb"/><stop offset="1" stop-color="#575ac1"/></linearGradient><linearGradient id="Sfumatura_senza_nome_101" x1="1757.6" y1="131.46" x2="1757.6" y2="449.49" gradientUnits="userSpaceOnUse"><stop offset="0" stop-color="#7895f9"/><stop offset="0.5" stop-color="#6f7cec"/><stop offset="0.73" stop-color="#656fdb"/><stop offset="1" stop-color="#565bc1"/></linearGradient><linearGradient id="Sfumatura_senza_nome_99" x1="1301.74" y1="293.1" x2="2179.52" y2="-84.07" gradientUnits="userSpaceOnUse"><stop offset="0" stop-color="#7895f9"/><stop offset="0.21" stop-color="#7691f7"/><stop offset="0.43" stop-color="#7183f0"/><stop offset="0.52" stop-color="#6e7cec"/><stop offset="0.74" stop-color="#656edb"/><stop offset="1" stop-color="#575ac1"/></linearGradient><linearGradient id="Sfumatura_senza_nome_102" x1="595.08" y1="340.05" x2="1211.2" y2="-295.31" gradientUnits="userSpaceOnUse"><stop offset="0" stop-color="#7895f9"/><stop offset="0.28" stop-color="#7792f7"/><stop offset="0.52" stop-color="#7387f1"/><stop offset="0.69" stop-color="#6e7beb"/><stop offset="0.83" stop-color="#656eda"/><stop offset="1" stop-color="#575ac1"/></linearGradient><linearGradient id="Sfumatura_senza_nome_41" x1="549.17" y1="703.71" x2="549.17" y2="255.01" gradientUnits="userSpaceOnUse"><stop offset="0" stop-color="#7895f9"/><stop offset="0.52" stop-color="#6d7aea"/><stop offset="0.75" stop-color="#646dd9"/><stop offset="1" stop-color="#575ac1"/></linearGradient><linearGradient id="Sfumatura_senza_nome_104-2" x1="388.2" y1="1067.55" x2="328.2" y2="355.34" xlink:href="#Sfumatura_senza_nome_104"/></defs><title>BDoctors_bg_2</title><polygon class="cls-1" points="1920 0 1920 492.86 1546.75 312.38 1313.02 300.89 1098.33 290.33 980.37 321.63 837.77 359.45 719.5 390.82 719.48 390.82 0 1068.6 0 0 1920 0"/><polygon class="cls-2" points="1920 0 1920 398.77 1595.21 0 1920 0"/><polygon class="cls-3" points="1920 398.77 1920 492.86 1546.75 312.38 900.71 0 1595.21 0 1920 398.77"/><polygon class="cls-4" points="1546.75 312.38 1313.02 300.89 1098.33 290.33 0 236.32 0 0 900.71 0 1546.75 312.38"/><polygon class="cls-5" points="1098.33 290.33 980.37 321.63 837.77 359.45 719.5 390.82 719.48 390.82 0 581.68 0 236.57 1098.33 290.33"/><polygon class="cls-6" points="719.48 390.82 0 1068.6 0 581.68 719.48 390.82"/></svg>