<svg id="Lens-search" xmlns="http://www.w3.org/2000/svg" viewBox="0 0 289.76 290.14"><defs><style>.cls-1{fill:#007fbd;}.cls-2{fill:#2a2d45;}</style></defs><title>BDoctors_lens_search</title><path class="cls-1" d="M330.22,403.71a95.41,95.41,0,0,1-16.68,16.56l0,0,1.5-1.13A79.74,79.74,0,0,0,329,405.34c.42-.53.83-1.07,1.23-1.61Z" transform="translate(-167.84 -257.65)"/><path class="cls-2" d="M456,520.52,372,436.9a5.55,5.55,0,0,0-3.91-1.61h-2.72a5.54,5.54,0,0,1-3.76-1.46l-17.35-16c.63-.75,1.24-1.52,1.85-2.29l0,0a98.85,98.85,0,1,0-20.85,20.75l-.05-.05c.77-.59,1.53-1.2,2.28-1.81l16.05,17.39a5.62,5.62,0,0,1,1.46,3.75v2.73a5.65,5.65,0,0,0,1.61,3.92l83.63,83.92a5.55,5.55,0,0,0,7.75.1l9.31-8.85-.14.18,8.84-9.31A5.56,5.56,0,0,0,456,520.52ZM266.77,418.59a62,62,0,1,1,62-62A62,62,0,0,1,266.77,418.59Z" transform="translate(-167.84 -257.65)"/></svg>