<svg id="user-icon" xmlns="http://www.w3.org/2000/svg" viewBox="0 0 268.21 268.21"><defs><style>.cls-1{fill:#2a2d45;}</style></defs><title>BDoctors_user_icon_2</title><path class="cls-1" d="M337.78,360.65a47.77,47.77,0,0,1-31.58,12h-.4c-1,0-1.92,0-2.9-.1a48.06,48.06,0,0,1,1.59-96c.41,0,.83,0,1.24,0,.66,0,1.31,0,2,0,.48,0,.95,0,1.43.07a48.06,48.06,0,0,1,28.66,84Z" transform="translate(-171.9 -257.13)"/><path class="cls-1" d="M306,257.13a134.14,134.14,0,0,0-42.5,261.33l9.21,2.71a135,135,0,0,0,66.59,0c3.11-.79,6.17-1.68,9.2-2.71A134.12,134.12,0,0,0,306,257.13Zm77.13,218.74-.91-56c-.17-.91-.35-1.81-.55-2.67-3.42-14.75-12-23.54-21.25-28.77a62,62,0,0,0-22.64-7.17l-7.74-.51h-.54L306,401.12l-23.49-20.4s-1.88-.07-4.92.15l-7,.89a60,60,0,0,0-19,6.66,42.76,42.76,0,0,0-21.07,28.08c-.26,1.08-.5,2.18-.71,3.33l-.92,56.54a114.68,114.68,0,0,1,75.61-199.81c.41,0,.83,0,1.24,0,.66,0,1.31,0,2,0a114.68,114.68,0,0,1,75.44,199.3Z" transform="translate(-171.9 -257.13)"/></svg>