<svg id="Livello_1" data-name="Livello 1" xmlns="http://www.w3.org/2000/svg" xmlns:xlink="http://www.w3.org/1999/xlink" viewBox="0 0 476.04 184.43"><defs><style>.cls-1{fill:#7ce7e5;}.cls-2{fill:#004f7c;}.cls-3{fill:url(#Sfumatura_senza_nome_99);}.cls-4{fill:#2a2d45;}</style><linearGradient id="Sfumatura_senza_nome_99" x1="111.69" y1="455.21" x2="542.99" y2="455.21" gradientUnits="userSpaceOnUse"><stop offset="0" stop-color="#7ce7e5"/><stop offset="0.09" stop-color="#78e4e3"/><stop offset="0.18" stop-color="#6cdbdc"/><stop offset="0.27" stop-color="#58ccd1"/><stop offset="0.33" stop-color="#48c0c8"/><stop offset="0.45" stop-color="#39b5c0"/><stop offset="0.62" stop-color="#2aa9b8"/><stop offset="0.75" stop-color="#25a5b5"/><stop offset="0.84" stop-color="#21a2b3"/><stop offset="0.91" stop-color="#169aad"/><stop offset="0.99" stop-color="#038ba2"/><stop offset="1" stop-color="#0089a0"/></linearGradient></defs><title>BDoctors_logo</title><path class="cls-1" d="M104.2,304.29a7.39,7.39,0,0,0-7.07,2.44,1.4,1.4,0,0,1-1,.51H82.86a15.28,15.28,0,0,0-14.48,10.05A27.32,27.32,0,0,0,67,326.85s.3,11.94,3.94,20.43a172.48,172.48,0,0,0,8.91,17.17,1.4,1.4,0,0,0,2,.42l4.09-3a1.39,1.39,0,0,0,.31-1.94c-2.34-3.26-9-13.39-10.8-26-1-7.2-.86-11.75.88-15,1.54-2.84,4.09-5,7.31-4.8l11.27.22a1.6,1.6,0,0,1,1.37.82,7.41,7.41,0,1,0,7.91-10.92Zm-1.46,10.83a3.57,3.57,0,1,1,3.56-3.56A3.56,3.56,0,0,1,102.74,315.12Z" transform="translate(-66.95 -304.15)"/><path class="cls-1" d="M120.92,310.09a7.41,7.41,0,0,0,13.72,5.12,1.6,1.6,0,0,1,1.37-.82l11.27-.22c3.22-.16,5.77,2,7.31,4.8,1.74,3.21,1.93,7.76.88,15-1.84,12.61-8.46,22.74-10.8,26a1.39,1.39,0,0,0,.31,1.94l4.09,3a1.4,1.4,0,0,0,2-.42A172.48,172.48,0,0,0,160,347.28c3.64-8.49,3.94-20.43,3.94-20.43a27.32,27.32,0,0,0-1.41-9.56,15.28,15.28,0,0,0-14.48-10.05H134.85a1.4,1.4,0,0,1-1-.51,7.41,7.41,0,0,0-12.88,3.36Zm3.71,1.47a3.57,3.57,0,1,1,3.56,3.56A3.56,3.56,0,0,1,124.63,311.56Z" transform="translate(-66.95 -304.15)"/><path class="cls-1" d="M149.15,369.61v1.68a5.66,5.66,0,0,1-.64,2.61c-2.06,4-9.09,16.7-19.56,25.17a10.28,10.28,0,0,0-3.55,5.78,67.15,67.15,0,0,1-4.65,14,1.07,1.07,0,0,1-1,.61h-9a1.06,1.06,0,0,1-1-.61,67.88,67.88,0,0,1-4.66-14,10.32,10.32,0,0,0-3.54-5.78c-10.48-8.47-17.5-21.14-19.57-25.17a5.77,5.77,0,0,1-.63-2.61v-1.68a4.24,4.24,0,0,1,2-3.61l3.1-1.89a3.34,3.34,0,0,1,3.77.22l.82.64a15.6,15.6,0,0,1,3.24,3.4l13.23,18.78a13.89,13.89,0,0,0,6.57,5l1.08.39,1.08-.39a13.79,13.79,0,0,0,6.57-5l13.23-18.78a16.08,16.08,0,0,1,3.24-3.4l.83-.64a3.32,3.32,0,0,1,3.76-.22l3.11,1.89A4.24,4.24,0,0,1,149.15,369.61Z" transform="translate(-66.95 -304.15)"/><polygon class="cls-2" points="72.89 34.97 72.89 48.39 54.42 48.46 54.35 65.98 42.35 65.98 42.29 48.46 23.81 48.39 23.81 34.97 42.35 34.97 42.35 17.85 54.35 17.85 54.35 34.97 72.89 34.97"/><path class="cls-3" d="M520.76,439.22a24.75,24.75,0,0,0-27,21.16.27.27,0,0,1-.26.23l-367.8.06a6.85,6.85,0,0,1-6.64-4.4,8.84,8.84,0,0,1-.63-3.37V422.21a.38.38,0,0,0-.37-.37h-6a.38.38,0,0,0-.37.37v31.66s0,9.15,8.1,12.47a13.73,13.73,0,0,0,5.2.94H493.53a.27.27,0,0,1,.26.23,24.74,24.74,0,1,0,27-28.29Zm-.67,42.67a18,18,0,0,1-19.52-14.28.27.27,0,0,1,.27-.33h5.7a.28.28,0,0,1,.26.19,12.15,12.15,0,1,0,0-7.12.28.28,0,0,1-.26.19h-5.7a.27.27,0,0,1-.27-.33,18.07,18.07,0,1,1,19.52,21.68Z" transform="translate(-66.95 -304.15)"/><path class="cls-4" d="M171.34,449.29V391h14.32a31.31,31.31,0,0,1,7,.72,14.18,14.18,0,0,1,5.4,2.41,10.85,10.85,0,0,1,3.5,4.57,18.79,18.79,0,0,1,1.22,7.27,16.8,16.8,0,0,1-1,6.05,9.2,9.2,0,0,1-2.85,4,10.44,10.44,0,0,1-4.68,2,12,12,0,0,1,5.73,2.41,11,11,0,0,1,3.38,4.79,20,20,0,0,1,1.12,7.12,23.64,23.64,0,0,1-1.05,7.38,13.42,13.42,0,0,1-3.09,5.33,13,13,0,0,1-5.11,3.21,21.59,21.59,0,0,1-7.17,1.08ZM182,414.8h3.6a10.37,10.37,0,0,0,4.9-.94A5,5,0,0,0,192.9,411a14.81,14.81,0,0,0,.68-4.89,9.21,9.21,0,0,0-1-4.79,5.28,5.28,0,0,0-3.13-2.31,19.68,19.68,0,0,0-5.33-.61H182Zm0,27h4c3.22,0,5.4-.78,6.56-2.34s1.72-4,1.72-7.24a16.54,16.54,0,0,0-.82-5.72,6.13,6.13,0,0,0-2.74-3.28,10.27,10.27,0,0,0-5.08-1.08H182Z" transform="translate(-66.95 -304.15)"/><path class="cls-4" d="M209.86,449.29V391h13.75q7.13,0,11.12,1.94a11.34,11.34,0,0,1,5.69,6,26.54,26.54,0,0,1,1.69,10.22v21.31A28.44,28.44,0,0,1,240.42,441a11.74,11.74,0,0,1-5.62,6.26q-3.92,2.06-10.76,2.06Zm10.65-7.42h3.24q3.67,0,5.26-1.3a5.73,5.73,0,0,0,1.94-3.78,43.25,43.25,0,0,0,.36-6.08V408.39a26.35,26.35,0,0,0-.5-5.69,4.93,4.93,0,0,0-2.09-3.17,9.89,9.89,0,0,0-5.11-1h-3.1Z" transform="translate(-66.95 -304.15)"/><path class="cls-4" d="M264.21,450.08q-6.18,0-9.86-2.31a12.72,12.72,0,0,1-5.26-6.62,29.86,29.86,0,0,1-1.58-10.22V409.11A29,29,0,0,1,249.09,399a12.45,12.45,0,0,1,5.26-6.44q3.68-2.24,9.86-2.23,6.35,0,10,2.23a12.68,12.68,0,0,1,5.25,6.44,28.22,28.22,0,0,1,1.62,10.12V431a28.51,28.51,0,0,1-1.62,10.11,13.18,13.18,0,0,1-5.25,6.63Q270.54,450.08,264.21,450.08Zm0-7.85a5.68,5.68,0,0,0,3.93-1.15,5.84,5.84,0,0,0,1.69-3.17,20.82,20.82,0,0,0,.43-4.39V406.66a20.23,20.23,0,0,0-.43-4.39,5.58,5.58,0,0,0-1.69-3.06,5.84,5.84,0,0,0-3.93-1.12,5.7,5.7,0,0,0-3.81,1.12,5.45,5.45,0,0,0-1.73,3.06,20.23,20.23,0,0,0-.43,4.39v26.86a23.13,23.13,0,0,0,.39,4.39,5.54,5.54,0,0,0,1.7,3.17A5.67,5.67,0,0,0,264.21,442.23Z" transform="translate(-66.95 -304.15)"/><path class="cls-4" d="M303,450.08q-6.4,0-10-2.52a13.1,13.1,0,0,1-5.08-6.88,32,32,0,0,1-1.44-10V409.83a33.42,33.42,0,0,1,1.44-10.37,12.46,12.46,0,0,1,5.08-6.77q3.63-2.37,10-2.37,6,0,9.47,2.05a11.27,11.27,0,0,1,4.86,5.87,25,25,0,0,1,1.44,8.85V412H308.57v-5a35.61,35.61,0,0,0-.26-4.46,5.57,5.57,0,0,0-1.36-3.21c-.75-.79-2-1.19-3.86-1.19a5.46,5.46,0,0,0-4,1.26,6.08,6.08,0,0,0-1.62,3.39,28.76,28.76,0,0,0-.36,4.79v25.34a22.81,22.81,0,0,0,.5,5.22,5.45,5.45,0,0,0,1.84,3.1,5.78,5.78,0,0,0,3.63,1,4.83,4.83,0,0,0,3.78-1.26,6.15,6.15,0,0,0,1.41-3.35,34.73,34.73,0,0,0,.29-4.68v-5.25h10.22v4.68a28.4,28.4,0,0,1-1.37,9.18,11.92,11.92,0,0,1-4.79,6.26Q309.21,450.08,303,450.08Z" transform="translate(-66.95 -304.15)"/><path class="cls-4" d="M330.45,449.29V398.81h-9.28V391h29.08v7.84h-9.14v50.48Z" transform="translate(-66.95 -304.15)"/><path class="cls-4" d="M369.55,450.08q-6.19,0-9.86-2.31a12.67,12.67,0,0,1-5.26-6.62,29.62,29.62,0,0,1-1.58-10.22V409.11A28.72,28.72,0,0,1,354.43,399a12.4,12.4,0,0,1,5.26-6.44q3.66-2.24,9.86-2.23t10,2.23a12.7,12.7,0,0,1,5.26,6.44,28.22,28.22,0,0,1,1.62,10.12V431a28.51,28.51,0,0,1-1.62,10.11,13.2,13.2,0,0,1-5.26,6.63Q375.89,450.08,369.55,450.08Zm0-7.85a5.67,5.67,0,0,0,3.92-1.15,5.85,5.85,0,0,0,1.7-3.17,21.5,21.5,0,0,0,.43-4.39V406.66a20.87,20.87,0,0,0-.43-4.39,5.59,5.59,0,0,0-1.7-3.06,5.82,5.82,0,0,0-3.92-1.12,5.75,5.75,0,0,0-3.82,1.12,5.44,5.44,0,0,0-1.72,3.06,20.19,20.19,0,0,0-.44,4.39v26.86a23.1,23.1,0,0,0,.4,4.39,5.53,5.53,0,0,0,1.69,3.17A5.7,5.7,0,0,0,369.55,442.23Z" transform="translate(-66.95 -304.15)"/><path class="cls-4" d="M392.66,449.29V391h14a30.71,30.71,0,0,1,10,1.4,11.44,11.44,0,0,1,6.19,4.79q2.13,3.39,2.13,9.21a28.35,28.35,0,0,1-.65,6.34,12.08,12.08,0,0,1-2.2,4.79,9.9,9.9,0,0,1-4.28,3.06l8.13,28.73H415.27l-7.06-26.72h-4.89v26.72Zm10.66-33.41h3.31a11.31,11.31,0,0,0,4.93-.9,5.28,5.28,0,0,0,2.63-2.88A13.78,13.78,0,0,0,415,407c0-2.93-.54-5.12-1.62-6.59s-3.13-2.19-6.16-2.19h-3.88Z" transform="translate(-66.95 -304.15)"/><path class="cls-4" d="M446,450.08a17.31,17.31,0,0,1-8.78-2.05,13,13,0,0,1-5.33-6,25.89,25.89,0,0,1-2-9.72l9.15-1.8a27.64,27.64,0,0,0,.83,6,8.67,8.67,0,0,0,2.08,4,5.05,5.05,0,0,0,3.71,1.4,4.16,4.16,0,0,0,3.67-1.55,6.69,6.69,0,0,0,1.08-3.92,10.65,10.65,0,0,0-1.72-6.27,27.24,27.24,0,0,0-4.61-4.89l-7.35-6.48a22.37,22.37,0,0,1-4.93-5.94,16.44,16.44,0,0,1-1.83-8.1q0-6.92,4-10.66t11-3.74a16.32,16.32,0,0,1,6.84,1.26,10.83,10.83,0,0,1,4.36,3.49,15.79,15.79,0,0,1,2.41,5.08,29.47,29.47,0,0,1,1,6l-9.07,1.58a31.65,31.65,0,0,0-.61-4.89,6.93,6.93,0,0,0-1.66-3.39,4.67,4.67,0,0,0-3.49-1.22,4.41,4.41,0,0,0-3.64,1.55,5.89,5.89,0,0,0-1.26,3.85,8.81,8.81,0,0,0,1.23,4.86,18.91,18.91,0,0,0,3.52,3.92l7.28,6.41a30.12,30.12,0,0,1,6.15,7.09,18.06,18.06,0,0,1,2.56,9.83,14.74,14.74,0,0,1-1.84,7.42,13.11,13.11,0,0,1-5.11,5.07A15.36,15.36,0,0,1,446,450.08Z" transform="translate(-66.95 -304.15)"/></svg>