<?xml version="1.0" encoding="utf-8"?>
<!-- Generator: Adobe Illustrator 25.2.3, SVG Export Plug-In . SVG Version: 6.00 Build 0)  -->
<svg version="1.1" id="Livello_5" xmlns="http://www.w3.org/2000/svg" xmlns:xlink="http://www.w3.org/1999/xlink" x="0px" y="0px"
	 viewBox="0 0 529.7 558.8" style="enable-background:new 0 0 529.7 558.8;" xml:space="preserve">
<style type="text/css">
	.st0{clip-path:url(#SVGID_2_);}
	.st1{fill:#FFFFFF;}
	.st2{fill:#E0DED5;}
	.st3{fill:#FBD5B5;}
	.st4{fill:#F9F9F9;}
	.st5{fill:none;}
	.st6{fill:#94C9E6;}
	.st7{fill:#755747;}
	.st8{fill:url(#SVGID_3_);}
	.st9{fill:#80BFE0;}
	.st10{fill:#EA9081;}
	.st11{fill:#D7DFE0;}
	.st12{fill:#DBDBDB;}
	.st13{opacity:0.1;fill:url(#SVGID_4_);}
	.st14{fill:#0685B3;}
	.st15{fill:#C9C9C9;}
	.st16{fill:#F7F6F5;}
	.st17{fill:#9C9B9B;}
	.st18{fill:#EFEEED;}
	.st19{fill:#FF9E88;}
	.st20{fill:#666666;}
	.st21{fill:#B49374;}
	.st22{fill:#DA8B68;}
	.st23{fill:#BCBCBC;}
	.st24{fill:#DD877C;}
</style>
<g>
	<defs>
		<ellipse id="SVGID_1_" cx="264.8" cy="279.4" rx="264.8" ry="279.4"/>
	</defs>
	<clipPath id="SVGID_2_">
		<use xlink:href="#SVGID_1_"  style="overflow:visible;"/>
	</clipPath>
	<g class="st0">
		<polygon class="st1" points="52.4,490.7 321.9,467.1 341.3,401.1 58,454.6 		"/>
		<path class="st2" d="M338.6,465.6c-1,4.6-5.7,22.2-8.4,26c-4.3,6-3.2,14.1-4.8,21.3c-1.2,5.3-15.6,45.9-18.3,50.7l-301,13.6
			l-60-77.3L338.6,465.6z"/>
		<path class="st3" d="M114.4,251.8c-0.5,0.3-1.2,0.6-1.9,0.8c-1.8,0.6-3.8,0.7-5,0c-0.9-0.5-1.7-1.3-2.5-2.1c-2.9-3-5.8-6-8.7-9
			c-5.6-5.8-12.3-12.9-11.7-21.6c0.1-0.9,0.3-1.9,0.9-2.6c0.8-0.8,2-1,3.2-0.9c1.6,0,3.2,0.3,4.7,0.8v0c5.5,7.4,11.4,14.6,15.6,22.8
			C111,243.8,112.6,247.9,114.4,251.8z"/>
		<path class="st3" d="M190.8,246.1v5.3c0,2.8-1.3,5.5-3.5,7.2l-5.3,4.1c-1.3,1-3.1,0.8-4.1-0.5l-2.2-2.7c-0.7-0.9-1.9-1.3-3.1-1
			c-1,0.3-1.8,1.1-2.1,2.1l-1.1,4.3c-0.3,1-1.1,1.9-2.1,2.1l-8.2,2.1c-1.6,0.4-3.3,0.2-4.8-0.4l-6.6-2.9c-0.9-0.4-1.5-1.1-1.9-2
			l-0.9-2.1c-1-2.4,0.4-5.2,2.9-5.8l13.1-3.5c1.1-0.3,2.1-0.8,3.1-1.5l3-2.2c1.5-1.1,3.3-1.7,5.1-1.8l1.7-0.1c1.2,0,2.3-0.3,3.4-0.8
			l8.2-3.6c1.6-0.7,3.4-0.2,4.4,1.3l0.3,0.5C190.6,244.7,190.8,245.4,190.8,246.1z"/>
		<path class="st3" d="M199.8,216c0,0,0-0.1,0-0.1c-1.9-6.2-3.4-12.5-5-18.8c-1.6-6.6-3.3-13.2-5.4-19.7c1.3-0.1,2.8,0.8,3.8,1.7
			c2.6,2.3,4.8,5.2,5.5,8.6c0.3,1.5,0.3,3.1,0.4,4.7c0.4,4.4,1.9,8.6,2.5,12.9C202.1,209,201.8,213.1,199.8,216z"/>
		<path class="st4" d="M186.2,389.6c-0.2,0.6-0.4,1.3-0.5,1.9c-2.4-0.5-4.8-1-7.2-1.6c-8.3-12.5-17.9-24.2-28.5-34.8
			c-10-9.9-20.9-18.9-30.3-29.3c3.6-5.7,6.5-11.9,8.6-18.3c2.2-6.9,3.5-14.2,3.8-21.5c3.5,5.6,7.5,11,11.3,16.5
			c2.8,3.9,5.5,7.9,8.2,12c8.5,12.8,16.1,26.3,21.9,40.5c0.5,1.2,1,2.5,1.5,3.8C178.8,368.9,182.1,379.4,186.2,389.6z"/>
		<path class="st5" d="M187.3,392.5c-0.1-0.2-0.2-0.4-0.3-0.7"/>
		<path class="st5" d="M179.6,466c-0.4,0-0.9-0.1-1.3-0.1"/>
		<path class="st5" d="M112.4,253.6c-0.1,0-0.1,0.1-0.2,0.1"/>
		<path class="st5" d="M151.4,314.4c-0.1,0.1-0.2,0.1-0.2,0.2"/>
		<path class="st6" d="M174.8,358.7c-0.5-1.3-1-2.5-1.5-3.8c-5.8-14.2-13.5-27.7-21.9-40.5c1.3-1.1,2.8-2.1,4.4-2.9
			c3.2-1.6,7.1-2.3,10.3-0.9c1.6,1.8,2.9,3.6,4,5.6c1.5,2.7,2.4,5.5,2.7,8.8c0.2,2.1-0.2,4.1-0.4,6.2c-0.2,2.8,0.1,5.6,0.4,8.3
			C173.5,345.9,174.1,352.3,174.8,358.7z"/>
		<path class="st7" d="M101.5,228c-2.7-5.5-2.9-16.1-6.1-23.4c-1.5-3.3-2.9-6.8-2.4-10.3c0.5-3.3,2.6-6.1,3.7-9.2
			c0.7-2,1-4.2,2.3-5.8c2.1-2.9,6.1-3.5,9.6-4.3c10-2.2,19.3-7.6,26.1-15.3c3.2-3.5,5.8-7.6,9.4-10.7c3.6-3.2,8.4-5.4,13-4.5
			c4,3.5,7.9,7,11.9,10.4c2.4,2.1,4.7,4.1,6.7,6.5c2.8,3.4,4.8,7.4,6.8,11.3c4.1,8.1,8.3,16.3,12.4,24.4c-1.6-6.6-3.3-13.2-5.4-19.7
			c-0.5-1.6-1.1-3.1-1.6-4.7c-5.2-14-13.9-27.5-27.1-34.3c-13.2-6.8-29.3-6-43.5-1.6c-5.3,1.6-10.7,3.9-14.3,8.1
			c-1.7,2-3,4.4-4.8,6.3c-2,2.1-4.7,3.6-6.8,5.6c-3.6,3.4-5.6,8.2-8.3,12.2c-3.8,5.6-4.5,12.2-3.4,18.8c1.4,8.8,6,17.7,10.4,24.2
			c1.2,1.7,2.4,3.4,3.6,5.1v0"/>
		<path class="st6" d="M199.4,328.2c-0.3,1.3-1,2.4-1.5,3.6c-1.5,3.6-1.6,7.7-1.9,11.6c-0.5,6.7-1.4,13.4-2.9,19.9
			c-1,4.3-2.1,8.6-3.3,12.9c-1.2,4.5-2.5,8.9-3.7,13.4c-4.1-10.2-7.4-20.7-11.4-30.9c-0.7-6.4-1.4-12.7-2-19.1
			c-0.3-2.8-0.6-5.5-0.4-8.3c0.1-2.1,0.5-4.1,0.4-6.2c-0.3-3.2-1.2-6.1-2.7-8.8c0.4-1.4,0.8-2.8,1.2-4.2c0.4-1.4,0.9-2.9,1.8-4.1
			c1-1.3,2.6-2.1,4-2.9c3.1-1.7,6.2-3.8,7.9-6.8c0.4-0.8,0.8-1.6,1-2.4c1.4,0.6,2.8,1.3,4.2,2c0.6,0.3,1.2,0.6,1.6,1.2
			c0.3,0.5,0.4,1.1,0.4,1.7c0.1,1.9-0.1,3.8-0.6,5.6c2.2-3.5,4.5-7.1,6.7-10.6c-0.4,9.1-0.1,18.3,0.9,27.4
			C199.6,324.7,199.9,326.5,199.4,328.2z"/>
		<path class="st3" d="M323.6,449.2c0,1.4-1.2,2.4-1.9,3.6c-1.3,2.2-1.1,4.6-0.5,7.1c-4.1-2.6-12.3-5.5-15.8-6.4
			c-5.3-1.4-10.6-3.2-15.5-5.6c-1.5-0.7-3-1.4-4.6-1.5c-1.9-0.1-3.6,0.8-5.4,1.4c-0.7,0.3-1.5,0.5-2.2,0.7c0-0.1-0.1-0.1-0.1-0.2
			c-6.1-10.7-12.2-21.5-20.9-30.1c-3.7-3.7-8-7-13-8.2c-3.9-1-8.1-0.6-11.7,1c-1.3,0.6-2.6,1.3-4,1.8c-2.3,0.8-13.6,0-12-4.9
			c0.1-0.3,0.3-0.4,0.6-0.6c3.6-2.5,7.3-5,10.9-7.5c3-2,6.4-2.8,10-3.3c4.7-0.7,9.5-0.8,14.2-0.4h0c6.5,0.5,12.9,2,18.9,4.5
			c0.3,0.1,0.7,0.3,1,0.4c3.9,1.6,7.6,3.6,11.5,5.1c5.8,2.2,11.9,3.4,17.9,4.5c8.6,1.6,17.1,3.2,25.7,4.8c-2.5,4.1-5.7,7.9-7.8,12.3
			c-2.7,5.6-3,13.3,1.7,17.3C321.7,446.3,323.6,447.4,323.6,449.2z"/>
		<path class="st5" d="M322.7,461c-0.4-0.4-0.9-0.7-1.5-1.1"/>
		<linearGradient id="SVGID_3_" gradientUnits="userSpaceOnUse" x1="155.6651" y1="430.1894" x2="280.5304" y2="430.1894">
			<stop  offset="1.229378e-03" style="stop-color:#FBD5B5"/>
			<stop  offset="1" style="stop-color:#ECC9AB"/>
		</linearGradient>
		<path class="st8" d="M280.5,456.9c-0.2,5.4-4.9,10.1-10.8,6.5c-1-0.6-1.8-1.3-2.6-2.2c-0.9,1.5-2.1,2.7-3.6,3.6
			c-2.5,1.5-5.7,2-8.4,0.7c-1.5-0.7-2.7-1.8-3.9-3c-0.2-0.2-0.4-0.4-0.5-0.5c-0.5,1.1-1.1,2.1-1.8,3c-1.3,1.7-3.2,3-5.4,3.1
			c-2.1,0.1-4-0.8-5.6-2.1c-0.8,2-2.3,3.8-4.2,4.9c-2.7,1.5-6.1,1.7-8.9,0.5c-3.1-1.3-5.3-4.1-7.8-6.4c-6.6-5.9-15.8-8.2-22.8-13.6
			c-1.5-1.1-2.9-2.4-4.2-3.8c-0.9-1-1.7-2-2.5-3c-0.9-1.3-1.8-2.7-3.2-3.6c-1-0.7-2.3-1-3.5-1.3c-8.1-1.9-16.3-3.8-24.4-5.8
			c-1.2-6.8-1.2-13.9-0.1-20.7c0.9-5.3,2.4-10.6,5.1-15.2c2.2-3.9,5.2-7.4,8.8-9.9c2.7,0.6,5.3,1.2,8,1.8c2.4,0.5,4.8,1.1,7.2,1.6
			c0.5,0.1,1,0.2,1.4,0.3c4.3,0.9,8.5,1.7,12.8,2.3c0.4,0.1,0.7,0.1,1.1,0.1c13.6,1.7,27.3-1.8,41-1.1c3.6,0.2,6.7,1.3,9.5,3
			c-4.7-0.4-9.5-0.3-14.2,0.4c-3.5,0.5-7,1.3-10,3.3c-3.6,2.5-7.3,5-10.9,7.5c-0.2,0.2-0.5,0.3-0.6,0.6c-1.6,4.9,9.8,5.7,12,4.9
			c1.4-0.5,2.7-1.2,4-1.8c3.7-1.6,7.8-2,11.7-1c5,1.2,9.3,4.6,13,8.2c8.7,8.6,14.9,19.4,20.9,30.1c0,0.1,0.1,0.1,0.1,0.2
			c1,1.8,2.1,3.7,2.6,5.7C280.5,455.1,280.6,456,280.5,456.9z"/>
		<path class="st4" d="M234.4,318.8c-0.2,1.3-0.7,2.5-1.2,3.7c-10.6,24-21.4,47.9-32.2,71.8c-0.4,0-0.7-0.1-1.1-0.1
			c-4.3-0.6-8.6-1.4-12.8-2.3c-0.3-0.7-0.6-1.5-0.9-2.2c1.2-4.5,2.5-8.9,3.7-13.4c1.2-4.3,2.4-8.5,3.3-12.9
			c1.5-6.6,2.4-13.2,2.9-19.9c0.3-3.9,0.4-8,1.9-11.6c0.5-1.2,1.2-2.3,1.5-3.6c0.4-1.7,0.2-3.4,0-5.1c-1.1-9.1-1.4-18.3-0.9-27.4
			c0.4-0.7,0.8-1.3,1.3-2c0.6-1,1.3-2,1.6-3.1c0.4-1.4,0.3-2.9,0.2-4.3c-0.2-1.8-0.3-3.5-0.5-5.3c7,6.9,14,13.7,21,20.6l6.9,6.8
			C231.8,311.2,234.9,314.7,234.4,318.8z"/>
		<path class="st9" d="M201.3,290.6c-0.3,1.1-1,2.1-1.6,3.1c-0.4,0.7-0.8,1.3-1.3,2c-2.2,3.6-4.5,7.1-6.7,10.6
			c0.5-1.8,0.6-3.7,0.6-5.6c0-0.6-0.1-1.2-0.4-1.7c-0.4-0.6-1-0.9-1.6-1.2c-1.4-0.7-2.8-1.3-4.2-2c1.4-4.3,0.9-9.2,2.1-13.6
			c0.9-0.9,1.7-1.8,2.4-2.8c3.4-4.6,5.2-10.1,7.4-15.4c1.3,5.6,2.3,11.3,3,17l0,0c0.2,1.8,0.4,3.5,0.5,5.3
			C201.6,287.7,201.7,289.2,201.3,290.6z"/>
		<path class="st1" d="M337.1,374.3c-1.2,1.4-2.2,2.9-3,4.6c-1.5,3.5-1.6,7.4-1.8,11.2c-0.3,7.4-0.7,15-3.9,21.7
			c-0.6,1.3-1.3,2.5-2,3.7c-8.6-1.6-17.1-3.2-25.7-4.8c-6.1-1.1-12.2-2.3-17.9-4.5c-3.9-1.5-7.6-3.5-11.5-5.1
			c-0.3-0.1-0.7-0.3-1-0.4c-6-2.5-12.4-4-18.9-4.5h0c-2.7-1.7-5.8-2.8-9.5-3c-13.7-0.6-27.4,2.8-41,1.1
			c10.8-23.9,21.6-47.8,32.2-71.8c0.5-1.2,1.1-2.4,1.2-3.7c0.5-4.1-2.7-7.6-5.6-10.5l-6.9-6.8c0-0.1,0-0.2,0.1-0.3
			c0.3-1.5,0.5-3.1,0.8-4.6c1.2-6.2,2.9-13.3-0.7-19c-1.2-1.9-3-3.4-4.7-4.8c-5.8-5-11.1-10.5-15.9-16.4c0.9-1.8,1.8-3.7,2.4-5.6
			c17.5,8.7,35.9,15.6,54.9,20.5c4.1,1.1,8.3,2.2,11.3,5.1c1.5,1.4,2.5,3.2,3.6,4.9c5.9,9.1,13.8,16.7,20.3,25.4
			c4.3,5.9,8,12.2,11.6,18.5c4.6,8,9.2,16,13.8,24c3.4,5.9,6.8,11.9,11.1,17.2C332.6,369.1,334.9,371.6,337.1,374.3z"/>
		<path class="st5" d="M203.9,250.7c-0.1-0.1-0.3-0.1-0.4-0.2"/>
		<path class="st3" d="M367.3,234.8c-0.2,4.4,0.4,8.8,0.3,13.3c-0.2,9.4-3.5,18-4.6,27.1c-5.4-0.2-11.7-0.5-13.5-1.1
			c-3-1-5.8-2.9-7.2-5.7c-1.3-2.7-1.2-5.9-1.1-8.9c0.2-6.6-0.1-13.3-1.7-19.7c-1.3-5.2-3.4-10.2-4.5-15.4c-1.1-5.2-1.2-11,1.4-15.7
			c1-1.8,2.3-3.3,3.1-5.2c1.8-4.3,0.4-9.1,0.2-13.7c-0.5-9.2,3.8-17.8,8.6-25.8c0.2,3.6,0.9,7.1,2.2,10.5c0.8,2.2,1.9,4.4,2.3,6.7
			c0.5,2.7,0,5.5,0.2,8.2c0.3,5.8,3.2,11,6,16.1c2.2-4.3,5.8-7.8,10.2-10c2.8,6,2.6,13.1,1.5,19.7
			C369.5,221.7,367.6,228.1,367.3,234.8z"/>
		<path class="st5" d="M351.1,159.5c-0.9,1.5-1.8,2.9-2.7,4.4"/>
		<path class="st10" d="M390.6,335.1c-2,2.3-3.3,5.5-5.4,7.8c-2.7,2.9-6.8,4.2-10.3,6.2c-1.7-1.5-3-3.3-3.6-5.6
			c-0.9-3.6-0.7-7.5,0.5-11c0.9-2.5,2.4-4.9,2.3-7.5c0-2-0.9-3.9-0.9-5.9c0-2.1,1-4,2.4-5.7C380.7,320.6,386.3,327.5,390.6,335.1z"
			/>
		<path class="st11" d="M555.4,476.2L528.6,553H421.8l17.1-39.4c5.1-11.7,14.8-20.7,26.7-25l75-26.9c2-0.7,3.9-0.8,5.7-0.5
			C553,462.2,557.9,469.1,555.4,476.2z"/>
		<path class="st1" d="M146.7,458.8c-0.7,0.4-1.3,0.8-1.9,1.3c-4.5,3.3-8.9,6.8-13.3,10.3c-0.9,0.7-1.8,1.5-2.3,2.5
			c-0.3,0.5-0.4,1-0.4,1.6l-76.4,8.1c1.8-7.3,5.2-14.5,5.6-22.1c0.3-6.7-1.9-13.2-3.1-19.7c-1.3-7.1-1.5-14.4-0.6-21.6
			c0,0,0.1,0,0.1,0.1c12.5,9.9,28.4,14.1,43.3,19.7C114.2,445,130.2,453,146.7,458.8z"/>
		<path class="st3" d="M188.2,282.2c-1.2,4.4-0.7,9.4-2.1,13.6c-0.3,0.8-0.6,1.6-1,2.4c-1.8,3.1-4.8,5.1-7.9,6.8
			c-1.5,0.8-3,1.6-4,2.9c-0.9,1.2-1.4,2.7-1.8,4.1c-0.4,1.4-0.8,2.8-1.2,4.2c-1.1-2-2.5-3.9-4-5.6c-5.7-6.5-14-11.6-19.8-17
			c-5.8-5.4-10.7-11.7-14.4-18.6c5.8,4,12.4,7.1,18.8,10c5.3,2.3,10.7,4.6,16.5,5.1C174.8,290.7,182.7,287.6,188.2,282.2z"/>
		<path class="st9" d="M166,310.7c-3.2-1.4-7.1-0.7-10.3,0.9c-1.6,0.8-3,1.7-4.4,2.9c-2.6-4-5.4-8-8.2-12
			c-3.8-5.4-7.8-10.8-11.3-16.5v0c-3.7-5.9-6.9-12.1-8.8-18.8c2.5,3,5.5,5.5,8.7,7.8c3.7,6.9,8.6,13.3,14.4,18.6
			C152,299,160.3,304.1,166,310.7z"/>
		<path class="st1" d="M170.4,463.2c0.8,0.6,1.7,1.2,2.6,1.7c-0.3,0.1-0.5,0.3-0.8,0.4c-4.5-0.6-9-1.6-13.4-2.7c0,0,0,0,0,0
			c-4.1-1.1-8.2-2.4-12.2-3.8c-16.5-5.8-32.6-13.7-49-19.8c-14.9-5.5-30.8-9.7-43.3-19.7c0,0-0.1,0-0.1-0.1
			c-6.6-5.3-11.1-13.1-14.3-20.9c-2.5-6-3.8-12.5-2.8-18.9c0.8-4.8,2.8-9.3,3.6-14c2-11.5-3.3-22.8-5.4-34.3c-0.5-2.7-0.9-6.8-1-9.5
			l0.1,1.3c0.4-6.4,0.6-12.4,1.8-18.7c0.5-2.4,1.5-5.2,2.3-7.5c0,0,0,0,0,0c0.4-1,0.7-1.9,1.2-2.9c0,0,0,0,0-0.1
			c0.3-0.6,0.6-1.2,1-1.8c1.2-2,2.8-3.8,4.5-5.4c7.3-7,16.8-11.3,26.7-13.5c4.8-1.1,9.7-1.7,14.2-3.7c2.3-1,4.3-2.3,6.4-3.8
			c0,0,0,0,0,0c1.2-0.8,2.3-1.6,3.4-2.5c0.4-0.3,0.7-0.5,1.1-0.8c4.8-3.4,9.8-6.3,15.1-8.7c-2.3,7.4-9.4,13.1-10.5,20.9
			c-0.3,2.3-0.1,4.7,0.1,7c0.5,4.8,1.2,9.6,1.8,14.3c0.1,0.4,0.1,0.9,0.4,1.2c0.2,0.3,0.6,0.5,1,0.6c7.7,3.3,15.4,6.5,23.1,9.8
			c-2.1,6.4-4.9,12.6-8.6,18.3c9.5,10.4,20.4,19.4,30.3,29.3c10.6,10.6,20.2,22.3,28.5,34.8c-2.7-0.6-5.3-1.2-8-1.8
			c-3.6,2.6-6.6,6-8.8,9.9c-2.7,4.7-4.2,9.9-5.1,15.2c-1.1,6.8-1.1,13.9,0.1,20.7c1.3,7.9,4.2,15.6,8.4,22.4
			C166.4,458.9,168.2,461.3,170.4,463.2z"/>
		<path class="st12" d="M190,447.7c0,0.4,0,0.7-0.1,1.1c-0.3,3.8-0.9,7.6-2.7,10.9c-1.8,3.3-5.1,6-8.8,6.3c-0.1,0-0.1,0-0.2,0
			c0,0,0,0,0,0c-1-0.1-2-0.2-3-0.3c0,0,0,0,0,0c-0.7-0.2-1.5-0.5-2.2-0.8c-0.9-0.5-1.8-1-2.6-1.7c-2.3-1.8-4-4.2-5.5-6.7
			c-4.2-6.9-7-14.5-8.4-22.4c8.1,1.9,16.3,3.8,24.4,5.8c1.2,0.3,2.4,0.6,3.5,1.3c1.4,0.9,2.2,2.3,3.2,3.6
			C188.3,445.7,189.1,446.7,190,447.7z"/>
		<linearGradient id="SVGID_4_" gradientUnits="userSpaceOnUse" x1="50.2577" y1="468.9141" x2="228.2409" y2="392.7579">
			<stop  offset="0" style="stop-color:#FFFFFF"/>
			<stop  offset="1" style="stop-color:#000000"/>
		</linearGradient>
		<path class="st13" d="M146.7,458.8c-0.7,0.4-1.3,0.8-1.9,1.3c-4.5,3.3-8.9,6.8-13.3,10.3c-0.9,0.7-1.8,1.5-2.3,2.5
			c-0.3,0.5,0.4,3.5-2.6,11.3l-77.2,5.7c4.8-14.6,8.2-21.8,8.6-29.4c0.3-6.7-1.9-13.2-3.1-19.7c-1.3-7.1-1.5-14.4-0.6-21.6
			c0,0,0.1,0,0.1,0.1c12.5,9.9,28.4,14.1,43.3,19.7C114.2,445,130.2,453,146.7,458.8z"/>
		<g>
			<path class="st14" d="M116.2,252.9c-0.8,1.8-1.7,3.5-2.5,5.3c-0.8,1.8-1.4,3.5-1.9,5.3c-0.9,3.6-1.2,7.3-1,11
				c0.4,7.4,2.6,14.6,5,21.9c2.4,7.3,4.8,14.7,7.1,22.1c2.3,7.4,4.5,14.9,6.3,22.5c-3.8-6.8-7.1-13.9-10.2-21.1
				c-3.1-7.2-5.8-14.5-8.2-21.9c-1.2-3.7-2.3-7.5-3.1-11.5c-0.8-3.9-1.2-8-1-12.1c0.2-4.1,1.1-8.2,2.7-11.9c0.8-1.9,1.9-3.6,3.1-5.2
				C113.6,255.9,114.9,254.4,116.2,252.9z"/>
			<path class="st14" d="M127.2,373.4c-1.9-2.6-3.2-5.5-4.2-8.5c-0.5-1.5-0.9-3.1-1.2-4.6c-0.3-1.6-0.4-3.2-0.4-4.8
				c0.1-1.6,0.4-3.3,0.8-4.8c0.4-1.6,0.9-3.1,1.4-4.7c0.6-1.5,1.2-3.1,2.5-4.4c0.7-0.6,1.5-1.1,2.5-1.3c0.9-0.2,1.9-0.2,2.8,0
				c0.9,0.2,1.7,0.5,2.5,0.8c0.8,0.4,1.5,0.7,2.2,1.1c1.5,0.8,2.8,1.8,4,2.9c2.4,2.2,4.6,4.8,6.3,7.6c1.6,2.8,2.8,5.9,3.6,8.9
				c0.4,1.6,0.7,3.1,0.8,4.7c0.2,1.6,0.2,3.2,0.1,4.8l-0.5,0.1c-3.8-5.3-6.1-10.8-9.1-15.7c-0.7-1.2-1.5-2.5-2.2-3.7
				c-0.8-1.2-1.6-2.4-2.5-3.4c-0.5-0.5-0.9-1.1-1.4-1.6c-0.2-0.3-0.5-0.5-0.7-0.8l-0.8-0.8c-0.5-0.5-1.1-1-1.6-1.5
				c-0.5-0.5-1.1-0.9-1.6-1.2c-0.6-0.3-1.2-0.5-1.7-0.5c-0.6,0-1.2,0.2-1.7,0.6c-1,0.8-1.6,2.2-1.8,3.6c-0.2,1.4-0.1,3,0,4.5
				c0.1,1.5,0.4,2.9,0.6,4.4c0.2,1.4,0.3,2.9,0.5,4.4l0.5,4.4c0.3,3,0.7,6,0.7,9.3L127.2,373.4z"/>
			<path class="st15" d="M127.1,366.6c0,0-0.1-12.1,6.9-12.7s11.4,4.8,14.8,16.2l-0.4,2.1c0,0-3.4-15.9-13.6-16.2
				c-6.1-0.2-3.6,15.8-3.6,15.8S128.2,369.8,127.1,366.6z"/>
		</g>
		<path class="st16" d="M131.9,286L131.9,286c-0.3,7.3-1.6,14.5-3.8,21.5c-7.7-3.3-15.4-6.5-23.1-9.8c-0.4-0.2-0.7-0.3-1-0.6
			c-0.3-0.3-0.3-0.8-0.4-1.2c-0.6-4.8-1.3-9.5-1.8-14.3c-0.2-2.3-0.5-4.7-0.1-7c1.1-7.8,8.2-13.5,10.5-20.9c0.1-0.3,0.2-0.7,0.3-1
			c0.7-0.2,1.4-0.5,1.9-0.8c2.1,4.8,4.3,9.5,7.4,13.7c0.4,0.6,0.9,1.1,1.3,1.7c0,0,0,0,0,0C125.1,273.9,128.2,280.1,131.9,286z"/>
		<path class="st1" d="M108.5,353.6c0,0,4.8,22.4,37,28.8c32.2,6.4-0.3-0.2-0.3-0.2l-1.7,12.4l-31.8-8.2l-7.3-12.3L108.5,353.6"/>
		<path class="st14" d="M210.1,268.1c1.8,0.8,3.2,1.9,4.5,3.2c0.7,0.6,1.3,1.3,1.9,2c0.6,0.7,1.2,1.4,1.7,2.1c0.5,0.7,1,1.5,1.5,2.2
			c0.5,0.8,0.9,1.5,1.4,2.3c0.4,0.8,0.9,1.6,1.2,2.4c0.4,0.8,0.7,1.7,1,2.5c0.3,0.9,0.6,1.7,0.8,2.6l0.6,2.6
			c0.2,0.9,0.4,1.7,0.6,2.6c0.2,0.9,0.4,1.7,0.7,2.6c0.5,1.7,1.1,3.3,1.7,5c0.6,1.7,1.3,3.3,2,4.9c2.9,6.5,4.7,13.4,6,20.4
			c0.2,1.8,0.5,3.5,0.6,5.3c0.2,1.8,0.3,3.5,0.3,5.3c0,1.8,0,3.6-0.1,5.3c-0.1,1.8-0.2,3.6-0.4,5.4l-0.5,0.1
			c-0.7-1.7-1.3-3.4-1.8-5.1c-0.5-1.7-1-3.4-1.4-5.1c-0.9-3.4-1.8-6.8-2.4-10.2c-0.1-0.4-0.1-0.9-0.2-1.3c-0.1-0.4-0.2-0.8-0.3-1.3
			c-0.2-0.9-0.3-1.7-0.5-2.6c-0.3-1.7-0.5-3.4-0.8-5.1c-0.3-1.7-0.6-3.4-0.9-5.1c-0.3-1.7-0.4-3.5-0.6-5.2c-0.3-1.7-0.5-3.5-0.9-5.2
			c-0.4-1.7-1-3.3-1.6-5c-0.3-0.8-0.7-1.6-1.1-2.4c-0.4-0.8-0.9-1.5-1.3-2.3l-1.3-2.3c-0.5-0.7-0.9-1.5-1.4-2.2
			c-0.4-0.7-0.8-1.5-1.2-2.3c-0.4-0.8-0.8-1.5-1.2-2.3c-0.7-1.6-1.5-3-2.2-4.6c-0.4-0.8-0.8-1.5-1.2-2.3c-0.4-0.8-0.8-1.5-1.2-2.3
			c-0.8-1.5-1.6-3-2.6-4.5L210.1,268.1z"/>
		<g>
			
				<ellipse transform="matrix(0.9143 -0.4051 0.4051 0.9143 -124.2481 124.2882)" class="st1" cx="231.5" cy="355.7" rx="7.9" ry="14.1"/>
			<path class="st17" d="M238.8,352.5c1.2,2.7,2.1,5.5,2.3,8.5c0.1,1.5,0.1,3-0.4,4.6c-0.4,1.5-1.4,3.1-3,4
				c-1.6,0.9-3.7,0.9-5.3,0.4c-1.7-0.5-3.1-1.4-4.4-2.4c-2.6-2.1-4.4-4.8-5.7-7.7c-1.3-2.9-2-6.1-1.9-9.4c0.1-1.6,0.4-3.3,1.2-4.9
				c0.7-1.6,2.1-3.1,3.8-3.7c1.8-0.6,3.6-0.2,5,0.5c1.4,0.7,2.6,1.7,3.6,2.8C236.1,347.3,237.6,349.8,238.8,352.5z M238.8,352.5
				c-1.2-2.7-2.9-5.2-5.2-7c-1.1-0.9-2.4-1.6-3.7-2c-1.3-0.4-2.6-0.2-3.6,0.3c-1.9,1.2-2.2,4-2,6.5c0.2,2.6,1,5.2,2.1,7.6
				c1.1,2.4,2.5,4.8,4.2,6.7c1.7,1.9,4,3.5,6.2,2.9c1-0.3,2-1.2,2.6-2.4c0.6-1.2,0.9-2.6,1-4.1C240.6,358.1,239.9,355.2,238.8,352.5
				z"/>
		</g>
		<g>
			
				<ellipse transform="matrix(0.9143 -0.4051 0.4051 0.9143 -122.4037 126.6154)" class="st1" cx="238" cy="352.5" rx="6.1" ry="8.8"/>
			<path class="st17" d="M243.5,350c0.8,1.8,1.3,3.7,1.2,5.8c0,1-0.2,2.1-0.6,3.1c-0.4,1-1.2,1.9-2.2,2.6c-1.1,0.6-2.3,0.8-3.6,0.7
				c-1.2-0.1-2.4-0.6-3.3-1.2c-2-1.2-3.5-3.1-4.4-5.2c-0.9-2.1-1.3-4.4-0.9-6.7c0.2-1.1,0.6-2.3,1.4-3.3c0.7-1,1.7-1.8,2.9-2.2
				c1.2-0.4,2.4-0.3,3.4,0.1c1,0.3,1.9,0.9,2.7,1.6C241.6,346.6,242.7,348.3,243.5,350z M243.5,350c-0.8-1.8-2.1-3.4-3.8-4.4
				c-0.8-0.5-1.7-0.8-2.6-0.9c-0.9-0.1-1.7,0.1-2.4,0.6c-1.3,0.9-1.7,2.5-1.7,4.1c0,1.6,0.4,3.3,1.1,4.8c0.7,1.5,1.6,2.9,2.8,4
				c1.2,1.1,2.7,1.8,4.2,1.4c0.7-0.2,1.5-0.7,2-1.4c0.5-0.7,0.9-1.6,1.1-2.5C244.6,353.9,244.3,351.8,243.5,350z"/>
		</g>
		<path class="st16" d="M222.8,296.6c-0.3,1.5-0.5,3.1-0.8,4.6c0,0.1,0,0.2-0.1,0.3c-7-6.9-14-13.7-21-20.6l0,0
			c-0.7-5.7-1.7-11.4-3-17c0.4-1.1,0.9-2.1,1.3-3.1c0.7-1.5,1.4-3,2.2-4.5c4.8,5.9,10.1,11.4,15.9,16.4c1.7,1.5,3.5,2.9,4.7,4.8
			C225.6,283.3,224,290.4,222.8,296.6z"/>
		<path class="st18" d="M131.9,286L131.9,286c-0.3,7.3-1.6,14.5-3.8,21.5c-7.7-3.3-15.4-6.5-23.1-9.8c-0.4-0.2-0.7-0.3-1-0.6
			c-0.3-0.3-0.3-0.8-0.4-1.2c-0.6-4.8-1.3-9.5-1.8-14.3c-0.2-2.3-0.5-4.7-0.1-7c1.1-7.8,8.2-13.5,10.5-20.9c0.1-0.3,0.2-0.7,0.3-1
			c0.7-0.2,1.4-0.5,1.9-0.8c2.1,4.8,4.3,9.5,7.4,13.7c0.4,0.6,0.9,1.1,1.3,1.7c0,0,0,0,0,0C125.1,273.9,128.2,280.1,131.9,286z"/>
		<path class="st18" d="M222.8,296.6c-0.3,1.5-0.5,3.1-0.8,4.6c0,0.1,0,0.2-0.1,0.3c-7-6.9-14-13.7-21-20.6l0,0
			c-0.7-5.7-1.7-11.4-3-17c0.4-1.1,0.9-2.1,1.3-3.1c0.7-1.5,1.4-3,2.2-4.5c4.8,5.9,10.1,11.4,15.9,16.4c1.7,1.5,3.5,2.9,4.7,4.8
			C225.6,283.3,224,290.4,222.8,296.6z"/>
		<path class="st3" d="M203.8,229c-1.1-4.4-2.6-8.8-4-13c0,0,0-0.1,0-0.1c-1.9-6.2-3.4-12.5-5-18.8c-4.1-8.1-8.2-16.3-12.4-24.4
			c-2-3.9-4-7.9-6.8-11.3c-2-2.4-4.4-4.5-6.7-6.5c-4-3.5-7.9-6.9-11.9-10.4c-4.7-1-9.5,1.3-13,4.5c-3.6,3.2-6.2,7.2-9.4,10.7
			c-6.8,7.6-16.1,13.1-26.1,15.3c-3.5,0.8-7.5,1.4-9.6,4.3c-1.2,1.7-1.6,3.9-2.3,5.8c-1.1,3.1-3.2,5.9-3.7,9.2
			c-0.5,3.6,1,7.1,2.4,10.3c3.2,7.2,3.2,17.1,6.1,23.4l-8-10.8c5.5,7.4,11.4,14.6,15.6,22.8c2,3.8,3.6,7.9,5.3,11.9
			c2.1,4.8,4.3,9.5,7.4,13.7c0.4,0.6,0.9,1.1,1.3,1.7c0,0,0,0,0,0c2.5,3,5.5,5.5,8.7,7.8c5.8,4,12.4,7.1,18.8,10
			c5.3,2.3,10.7,4.6,16.5,5.1c7.7,0.6,15.6-2.4,21-7.8c0.9-0.9,1.7-1.8,2.4-2.8c3.4-4.6,5.2-10.1,7.4-15.4c0.4-1.1,0.9-2.1,1.3-3.1
			c0.7-1.5,1.4-3,2.2-4.5c0.9-1.8,1.8-3.7,2.4-5.6c0.2-0.7,0.5-1.3,0.6-2C206.3,242.2,205.5,235.6,203.8,229z"/>
		<path class="st19" d="M543.3,408.7c-2.2-8.4-5.2-16.6-8.2-24.7c-1.7-4.7-3.4-9.4-5.1-14.1c-16.9,4.5-33.8,8.9-50.7,13.4
			c-0.7,0.2-1.4,0.4-2.1,0.5c-5.3-8.2-10.6-16.4-16.8-24.1c-8.6-10.8-19.1-20.5-31.8-25.8c-12.7-5.4-26.1-5.6-38.1,1.1
			c-2,2.3-3.3,5.5-5.4,7.8c-2.7,2.9-6.8,4.2-10.3,6.2c-1.1,0.7-2.2,1.4-3.1,2.3c-1,1-1.8,2.2-2.7,3.3c-0.6,0.8-1.2,1.5-1.9,2.2
			c-2.2,1.9-5,2.8-7.8,3.8c-5.4,2-10.6,4.6-15.4,7.8c-2.5,1.7-5,3.6-7,5.9c-1.2,1.4-2.2,2.9-3,4.6c-1.5,3.5-1.6,7.4-1.8,11.2
			c-0.3,7.4-0.7,15-3.9,21.7c-0.6,1.3-1.3,2.5-2,3.7c-2.5,4.1-5.7,7.9-7.8,12.3c-2.7,5.6-3,13.3,1.7,17.3c1.4,1.2,3.2,2.2,3.2,4
			c0,1.4-1.2,2.4-1.9,3.6c-1.3,2.2-1.1,4.6-0.5,7.1c0.8,3.3,2.2,6.8,1.5,10c-1,4.6-5.7,7.2-8.4,11.1c-4.3,6-3.2,14.1-4.8,21.3
			c-1.2,5.3-3.7,10.2-6.4,15c-1.3,2.3-2.6,4.6-3.8,7c-4.5,8.9-7.3,18.8-8.1,28.8h86.3h44.4l17.1-39.4c5.1-11.7,14.8-20.7,26.7-25
			l75-26.9c2-0.7,3.9-0.8,5.7-0.5C547.3,445.5,546.8,422.2,543.3,408.7z M450.2,378.8C450.2,378.8,450.2,378.8,450.2,378.8
			c-0.3-0.2-0.6-0.4-0.9-0.6C449.6,378.4,449.9,378.6,450.2,378.8L450.2,378.8z M445.1,375.1c1,0.7,2,1.4,3,2.2
			c0.3,0.2,0.7,0.5,1,0.7C447.7,377.1,446.4,376.1,445.1,375.1z"/>
		<path class="st7" d="M543.3,408.7c-2.2-8.4-5.2-16.6-8.2-24.7c-1.7-4.7-3.4-9.4-5.1-14.1c2-0.5,4-1.1,6-1.6
			c0.9-0.3,1.9-0.5,2.6-1.2c1.3-1.3,1-3.5,0.6-5.3c-4.8-20.6-11.3-41.7-19.7-61.1c-1.6-3.8-3.4-7.7-3-11.8c0.4-3.3,2.1-6.2,3.3-9.2
			c2.2-5.8,2.4-12.2,2.3-18.4c-0.1-10.2-0.7-20.6-4.3-30.1c-2.4-6.3-6.9-12.3-8.5-18.7c-1.9-7.2-2-15-3.6-22.3
			c-3.3-14.8-8.5-29.4-16.6-42.2c-12.5-19.9-32.7-35.8-55.9-39.3c-11.5-1.7-23.3-0.4-34.9,1.2c-2.3,0.3-4.7,0.6-7,0.3
			c-1.8-0.3-3.6-0.9-5.4-1.2c-4.3-0.6-8.7,0.9-12.5,3.1c-10,5.6-17.6,15.2-21.1,26.1c-1.7,5.4-2.1,11.1-3.3,16.6
			c-0.6,3-0.9,6.1-0.7,9.1c0.2,3.6,0.9,7.1,2.2,10.5c0.8,2.2,1.9,4.4,2.3,6.7c0.5,2.7,0,5.5,0.2,8.2c0.3,5.8,3.2,11,6,16.1
			c2.2-4.3,5.8-7.8,10.2-10c2.8,6,2.6,13.1,1.5,19.7c-1.1,6.6-3,13.1-3.3,19.7c-0.2,4.4,0.4,8.8,0.3,13.3c-0.2,9.4-3.5,18-4.6,27.1
			c0.1-0.4,0.1-0.9,0.2-1.3c-3.1,10.6-7,20.9-9.7,32c-4.7,19.3-6,39.5-3.9,59.3c3.2-1.7,6.5-3.2,9.9-4.5c2.7-1,5.6-1.9,7.8-3.8
			c0.7-0.6,1.4-1.4,1.9-2.2c0.9-1.1,1.7-2.3,2.7-3.3c0.9-0.9,2-1.7,3.1-2.3c3.5-2,7.5-3.3,10.3-6.2c2.1-2.3,3.4-5.5,5.4-7.8
			c0,0,0,0,0,0c2.1,3.6,3.9,7.4,6.3,10.8c6.7,9.2,20,13.4,29.8,18.4c5.1,2.6,10.1,5.2,14.8,8.4c2.9,1.9,5.7,4.1,8.6,6.2
			c17,14,30.2,32.1,47.9,45.4c9.3,7.1,20.2,12.1,28.9,19.9c5.6,5.1,10.1,11,13.9,17.4c1.9-0.6,3.8-0.8,5.5-0.5
			C547.3,445.5,546.8,422.2,543.3,408.7z"/>
		<path class="st7" d="M115.7,216.6c0.2-3.3,2.2-6.5,5.1-8.2c1.1-0.7,2.4-1.1,3.7-1.4c5.7-1.7,12.1-2.1,17.6,0.2"/>
		<path class="st7" d="M163.2,197.8c2-3.2,5.1-5.7,8.1-7.9c2.8-2.1,6.3-4.2,9.7-3.3c1.9,0.5,3.5,2,4.9,3.4"/>
		<g>
			<path class="st20" d="M126.6,225.7c1-1.3,2.1-2.6,3.3-3.7c1.2-1.1,2.6-2.1,4.2-2.8c1.5-0.7,3.2-1.2,4.9-1.3
				c1.7-0.1,3.4,0.2,4.9,1c-1.7-0.2-3.2-0.1-4.8,0.2c-1.5,0.3-3,0.8-4.4,1.5c-1.4,0.6-2.8,1.5-4.1,2.4
				C129.3,223.8,128,224.8,126.6,225.7z"/>
			<path class="st20" d="M139.7,217.9c1.5,0,3,0.3,4.2,1c-0.6-0.1-1.2-0.1-1.8-0.1c-1,0-2,0.1-3,0.3c-1.5,0.3-3,0.8-4.4,1.5
				c-1.4,0.6-2.8,1.5-4.1,2.4c-1.3,0.9-2.6,1.9-4.1,2.7c1-1.3,2.1-2.6,3.3-3.7c1.2-1.1,2.6-2.1,4.2-2.8c1.5-0.7,3.2-1.2,4.9-1.3
				C139.2,217.9,139.5,217.9,139.7,217.9 M139.7,217.1c-0.2,0-0.5,0-0.7,0c-1.7,0.1-3.4,0.6-5.2,1.4c-1.6,0.8-3.1,1.7-4.4,2.9
				c-1.2,1.1-2.4,2.4-3.4,3.8l-2.4,3.2l3.4-2c1-0.6,1.9-1.2,2.8-1.9c0.4-0.3,0.9-0.6,1.3-0.9c1.1-0.8,2.5-1.6,4-2.3
				c1.4-0.7,2.8-1.1,4.3-1.4c0.9-0.2,1.9-0.3,2.8-0.3c0.6,0,1.1,0,1.7,0.1l3.9,0.4l-3.4-1.9C143,217.5,141.4,217.1,139.7,217.1
				L139.7,217.1z"/>
		</g>
		<g>
			<path class="st20" d="M168.4,209c0.2-1.7,1-3.3,2.2-4.5c1.2-1.3,2.7-2.2,4.3-2.8c1.6-0.6,3.3-0.9,4.9-1c1.7-0.1,3.3-0.1,4.9,0.2
				c-1.6,0.4-3.2,0.7-4.8,1c-1.6,0.3-3.1,0.7-4.5,1.3c-1.4,0.5-2.8,1.3-4,2.3C170.2,206.3,169.2,207.5,168.4,209z"/>
			<path class="st20" d="M181.5,200.6c1.1,0,2.2,0.1,3.3,0.2c-1.6,0.4-3.2,0.7-4.8,1c-1.6,0.3-3.1,0.7-4.5,1.3
				c-1.4,0.5-2.8,1.3-4,2.3c-1.2,1-2.2,2.1-3,3.6c0.2-1.7,1-3.3,2.2-4.5c1.2-1.3,2.7-2.2,4.3-2.8c1.6-0.6,3.3-0.9,4.9-1
				C180.4,200.6,180.9,200.6,181.5,200.6 M181.5,199.8L181.5,199.8c-0.6,0-1.2,0-1.7,0.1c-1.8,0.1-3.5,0.5-5.1,1.1
				c-1.8,0.7-3.4,1.7-4.5,3c-1.4,1.5-2.2,3.2-2.4,4.9l-0.4,3.9l1.8-3.4c0.7-1.3,1.6-2.4,2.8-3.4c1.1-0.9,2.4-1.6,3.8-2.1
				c1.3-0.5,2.7-0.9,4.4-1.2c0.5-0.1,1-0.2,1.5-0.3c1.1-0.2,2.2-0.4,3.3-0.7l3.8-1l-3.9-0.5C183.7,199.9,182.6,199.8,181.5,199.8
				L181.5,199.8z"/>
		</g>
		<path class="st21" d="M154.9,241.9c0.7-0.8,1.8-1.3,2.9-1.5c1.1-0.2,2.2-0.3,3.2-0.2c2,0.1,3.9,0.4,5,0.2c0.4-0.1,0.5-0.1,0.8-0.2
			c0.3-0.1,0.6-0.3,0.9-0.4c0.7-0.4,1.3-0.9,2.1-1.5c0.8-0.6,1.6-1.2,2.6-1.6c1-0.5,2.1-0.8,3.2-0.7c-1.4,1.6-2.1,3.2-3.2,4.9
			c-0.6,0.8-1.2,1.7-2.2,2.5c-0.5,0.4-1,0.7-1.6,1.1c-0.6,0.3-1.4,0.5-2,0.6c-0.6,0.1-1.3,0.1-1.9,0.1c-0.6-0.1-1.2-0.1-1.7-0.3
			c-1.1-0.3-2-0.6-2.9-1C158.5,243,157,242.2,154.9,241.9z"/>
		<path class="st22" d="M151.5,261.9c2.8-1.6,5.7-2.7,8.4-3.7c2.8-1,5.5-2,8.2-2.9c2.7-0.9,5.5-1.8,8.3-2.6c2.8-0.8,5.7-1.7,9-2.1
			c-1.9,2.6-4.3,4.7-6.9,6.4c-2.6,1.7-5.4,3.1-8.4,4.1c-3,1-6.1,1.6-9.2,1.8C157.8,263,154.6,262.8,151.5,261.9z"/>
		<path class="st22" d="M169.6,259.6"/>
		<path class="st23" d="M61.6,405c-0.1-1.1-0.2-2.1-0.2-3.2c0.1-1,0.2-2.1,0.3-3.1c0.2-1,0.5-2.1,0.8-3.1c0.2-0.5,0.4-1,0.6-1.5
			c0.2-0.5,0.4-1,0.7-1.4c0.6-0.9,1.1-1.8,1.9-2.6c0.4-0.4,0.7-0.8,1-1.2c0.3-0.4,0.7-0.8,1.1-1.2c0.4-0.4,0.7-0.8,1-1.2
			c0.4-0.4,0.7-0.7,1.1-1.1c0.7-0.8,1.4-1.5,2.2-2.3c0.2-0.2,0.4-0.4,0.6-0.6l0.6-0.5c0.4-0.3,0.8-0.7,1.3-1
			c0.4-0.4,0.9-0.6,1.4-0.8l1.4-0.7c1-0.5,2-0.8,3-1.2c1-0.4,2.1-0.5,3.1-0.7c0.5-0.1,1.1-0.2,1.6-0.2c0.5,0,1.1-0.1,1.6-0.1
			c0.5,0,1.1-0.1,1.6,0l1.6,0.1c2.1,0.1,4.2,0.6,6.2,1.2l0,0.3c-4.1,0.7-8.1,1.1-11.9,1.9c-0.9,0.2-1.9,0.4-2.8,0.6l-1.4,0.4
			c-0.5,0.1-1,0.2-1.4,0.4l-1.4,0.5c-0.5,0.2-0.9,0.3-1.4,0.5c-0.4,0.2-0.9,0.4-1.3,0.6l-0.7,0.3c-0.2,0.1-0.4,0.2-0.6,0.4
			c-0.8,0.5-1.8,1-2.5,1.7c-0.4,0.3-0.7,0.7-1.1,1c-0.3,0.4-0.6,0.8-0.9,1.2c-0.3,0.4-0.6,0.8-0.8,1.3c-0.2,0.5-0.4,0.9-0.6,1.4
			c-0.2,0.5-0.4,0.9-0.5,1.4c-0.2,0.5-0.3,0.9-0.5,1.4c-0.2,0.4-0.3,0.9-0.5,1.4c-0.2,0.5-0.4,0.9-0.6,1.4c-0.4,0.9-0.7,1.9-1,2.8
			c-0.3,0.9-0.6,1.9-1,2.8c-0.3,1-0.7,1.9-1.1,2.9L61.6,405z"/>
		<path class="st21" d="M245.8,424.5c0.4,3.7,1.6,6.9,3.3,10c1.7,3.1,3.8,5.8,6.1,8.6c2.2,2.8,4.6,5.5,6.7,8.6
			c1,1.5,1.9,3.2,2.7,4.8c0.8,1.6,1.6,3.2,2.6,4.8c-1.5-1.1-2.7-2.6-3.8-4c-1.1-1.4-2.2-2.8-3.4-4.1c-2.3-2.7-4.8-5.3-7.1-8.1
			c-2.3-2.8-4.4-6-5.8-9.5c-0.7-1.7-1.2-3.6-1.4-5.5C245.4,428.2,245.4,426.3,245.8,424.5z"/>
		<path class="st21" d="M235.4,439.8c1.5,1.8,2.8,3.6,4.1,5.4l3.8,5.5c1.3,1.8,2.5,3.7,3.8,5.5c1.2,1.9,2.5,3.7,3.6,5.8
			c-2-1.2-3.8-2.7-5.5-4.3c-1.6-1.6-3.1-3.4-4.4-5.3c-1.3-1.9-2.5-3.9-3.4-6C236.5,444.4,235.8,442.2,235.4,439.8z"/>
		<path class="st21" d="M224.4,451.4c1.5,1,2.8,2,4,3.2c1.2,1.1,2.4,2.3,3.5,3.5c1.1,1.2,2.2,2.5,3.2,3.8c0.5,0.7,1,1.3,1.5,2
			c0.5,0.7,1,1.4,1.4,2.2c-0.8-0.3-1.6-0.7-2.4-1.1c-0.8-0.4-1.5-0.9-2.1-1.4c-1.4-1-2.6-2.2-3.7-3.4c-1.1-1.2-2.2-2.6-3.1-4
			C225.7,454.6,224.9,453.1,224.4,451.4z"/>
		<path class="st23" d="M270,305.1c-0.4,8.1-0.8,16.1,0,24c0.4,3.9,1.1,7.8,2.2,11.6c1,3.8,2.3,7.7,3,11.9c0.8,4.2,0.8,8.4,0.6,12.5
			c-0.2,4.1-0.6,8.1-1.1,12.1c-0.9,8-1.9,16-3.5,24c-0.4-8.1-0.1-16.2,0.2-24.2c0.3-8.1,1.4-16.1,0.1-23.7
			c-0.6-3.8-1.7-7.7-2.7-11.6c-0.5-2-0.9-4-1.1-6.1c-0.3-2.1-0.4-4.1-0.5-6.2C267,321,268.2,313,270,305.1z"/>
		<path class="st23" d="M213.2,382.4c4.7-1,9.2-2.5,13.8-3.8c4.6-1.3,9.2-2.6,13.8-3.8l6.9-1.8l6.9-1.7c4.6-1.2,9.1-2.5,13.2-5
			c-1.9,1.5-4,2.7-6.2,3.7c-2.2,1-4.5,1.8-6.8,2.5c-4.6,1.4-9.2,2.6-13.8,3.8c-4.6,1.2-9.2,2.4-13.9,3.5
			C222.6,380.8,217.9,381.9,213.2,382.4z"/>
		<path class="st23" d="M215.7,256.9l20,6l10,2.9c3.3,1,6.7,1.9,10,2.8c1.7,0.4,3.3,0.8,5,1.2c1.7,0.4,3.5,0.8,5.2,1.5
			c1.8,0.7,3.5,1.6,5.1,2.8c1.6,1.3,2.8,2.9,3.8,4.4c1,1.5,1.9,2.8,3,4.2c1,1.4,2.1,2.7,3.1,4c2.2,2.6,4.4,5.2,6.7,7.9
			c2.3,2.6,4.6,5.3,6.7,8.1c2.2,2.8,4.2,5.7,6.1,8.7c3.8,6,7,12.2,10.3,18.2l4.9,9.2c1.6,3.1,3.2,6.2,4.8,9.3
			c3.1,6.2,6.2,12.4,10,18.2c-4.9-5-8.7-11-12.5-16.8c-1.9-2.9-3.8-5.9-5.6-8.8l-5.5-8.9c-3.6-5.9-7.1-11.9-10.8-17.6
			c-1.9-2.9-3.8-5.6-5.9-8.3c-2.1-2.7-4.3-5.3-6.5-7.9c-2.2-2.7-4.5-5.3-6.6-8.1c-1.1-1.4-2.1-2.8-3.2-4.3c-1-1.4-2-3-2.9-4.5
			c-0.9-1.4-1.7-2.7-2.8-3.6c-1.1-1-2.3-1.8-3.8-2.4c-1.4-0.7-3-1.2-4.7-1.7c-1.6-0.5-3.4-1-5-1.6c-6.6-2.2-13.2-4.6-19.7-7.1
			C228.5,262.3,222,259.7,215.7,256.9z"/>
		<path class="st24" d="M331.8,479c4,4.3,7.4,9.1,10.4,14.1c3.1,5,5.7,10.2,8,15.7c2.3,5.4,4.1,11,5.5,16.7
			c1.4,5.7,2.4,11.5,2.7,17.3c-1.9-5.5-3.6-11-5.6-16.5c-1.9-5.4-4-10.8-6.2-16.1c-2.2-5.3-4.6-10.5-7.1-15.7
			C337.1,489.3,334.5,484.2,331.8,479z"/>
		<path class="st24" d="M331.6,442.7c5.8-1.2,11.2-3.2,16.8-5.2c5.5-1.9,11.3-3.8,17.4-4.4c6-0.7,12.2-0.3,18.1,1.1
			c5.9,1.4,11.5,3.8,16.3,7.3c-5.6-2-11.2-3.5-16.9-4.3c-5.7-0.8-11.4-0.9-17.1-0.3c-5.7,0.6-11.2,2.1-17,3.5
			C343.6,441.8,337.6,443.1,331.6,442.7z"/>
		<path class="st24" d="M381.3,360.5c8,3.6,15.6,8.3,22.4,14c3.4,2.9,6.6,6,9.6,9.3c3,3.4,5.6,7,7.9,10.9c2.3,3.9,4.2,8.1,5.7,12.4
			c1.4,4.3,2.4,8.8,2.9,13.4c0.5,4.6,0.4,9.2-0.3,13.8c-0.7,4.6-1.9,9.1-3.8,13.4c-0.5,1-1,2.1-1.5,3.1c-0.5,1-1,1.8-1.3,2.5
			c-0.1,0.4-0.2,0.6-0.3,1c-0.1,0.4-0.1,0.8-0.1,1.2c0,0.9,0.1,2,0.1,3.2c0,2.3-0.1,4.7-0.6,7.1c-0.5,2.4-1.2,4.8-2.6,7.1
			c-1.3,2.2-3.3,4.3-5.3,5.6c-2,1.4-3.9,2.5-5.7,3.6c-1.8,1.1-3.3,2.3-4.4,3.6c-0.3,0.3-0.5,0.7-0.7,1c-0.2,0.4-0.4,0.7-0.5,1.1
			c-0.3,0.8-0.4,1.7-0.5,2.7c-0.2,2-0.2,4.3-0.6,6.7c-0.1,0.6-0.3,1.3-0.4,1.8c-0.2,0.6-0.3,1.1-0.5,1.6c-0.3,1.1-0.8,2.2-1.2,3.2
			c-0.9,2.1-1.9,4.2-3.1,6.1c-1.2,1.9-2.3,3.7-3.3,5.6c-1,1.9-1.7,3.8-2.2,5.8c-0.2,1-0.4,2-0.5,3.1c-0.1,1.1-0.2,2.2-0.4,3.3
			c-0.3,2.2-0.8,4.4-1.5,6.5c-0.7,2.1-1.6,4.2-2.8,6c0.9-2,1.5-4.1,1.9-6.2c0.4-2.1,0.6-4.3,0.7-6.4c0-1.1,0-2.2,0-3.2
			c0-1.1,0-2.3,0.2-3.4c0.3-2.3,0.9-4.5,1.8-6.7c0.9-2.1,1.9-4.1,2.9-6c1-1.9,1.8-3.8,2.4-5.8c0.3-1,0.6-2,0.9-3
			c0.3-1,0.5-2.1,0.6-2.9c0.2-1.9,0.1-4.1,0.2-6.4c0.1-1.2,0.2-2.4,0.6-3.8c0.2-0.7,0.5-1.3,0.8-1.9c0.3-0.6,0.7-1.2,1.1-1.8
			c1.6-2.2,3.6-3.7,5.5-5c1.9-1.3,3.7-2.4,5.3-3.6c1.6-1.2,2.7-2.4,3.6-4c1.7-3.1,2.2-7.1,2.2-11.2c0-1-0.1-2.1-0.1-3.3
			c0-0.6,0-1.3,0.1-2c0.1-0.7,0.3-1.5,0.5-2.2c0.5-1.4,1.1-2.4,1.6-3.4l1.3-2.8c3.4-7.5,4.5-15.9,3.9-24.2c-0.6-8.3-3.1-16.5-6.9-24
			c-3.9-7.5-9.2-14.3-15.4-20.4C395.6,370.6,388.6,365.3,381.3,360.5z"/>
		<path class="st21" d="M277.5,448.3c-4-5.7-7.7-11.6-11.9-17.2c-2.1-2.8-4.2-5.5-6.5-8c-2.3-2.5-4.7-5-7.3-7.1
			c-2.6-2.1-5.5-3.8-8.6-4.6c-3.1-0.9-6.4-0.8-9.6,0.1c-0.8,0.2-1.5,0.5-2.3,0.9c-0.8,0.3-1.6,0.7-2.5,1c-0.2,0.1-0.4,0.2-0.7,0.2
			c-0.1,0-0.2,0.1-0.4,0.1c-0.1,0-0.3,0-0.4,0.1c-0.5,0.1-1,0.1-1.4,0.1c-0.9,0-1.8-0.1-2.7-0.2c-1.8-0.3-3.5-0.7-5.2-1.5
			c-0.8-0.4-1.6-0.9-2.1-1.7c-0.3-0.4-0.4-0.8-0.5-1.3c0-0.5,0.1-0.9,0.2-1.3c-0.1,0.4-0.1,0.9,0,1.3c0.1,0.4,0.3,0.8,0.6,1
			c0.6,0.6,1.3,0.9,2.1,1.2c1.6,0.5,3.3,0.7,5,0.8c0.8,0,1.7,0,2.5-0.1c0.4,0,0.8-0.1,1.2-0.2c0.1,0,0.2,0,0.2-0.1
			c0.1,0,0.1,0,0.2-0.1c0.2-0.1,0.4-0.2,0.6-0.2c0.7-0.4,1.5-0.8,2.3-1.2c0.8-0.4,1.6-0.8,2.5-1.1c3.5-1.3,7.4-1.5,11-0.7
			c3.7,0.9,6.9,2.8,9.8,5c5.6,4.6,10,10.2,13.8,16.1C271.5,435.7,274.6,441.9,277.5,448.3z"/>
		<path class="st21" d="M93.4,217.2c-1.1-0.2-2.2-0.3-3.2-0.3c-1.1,0-2.2,0-3,0.3c-0.9,0.3-1.3,0.9-1.5,1.7
			c-0.1,0.4-0.1,0.9-0.1,1.4c0,0.5,0,1,0.1,1.5c0.1,1,0.3,2,0.6,3c0.3,1,0.6,1.9,1.1,2.8c0.9,1.8,2,3.6,3.3,5.3
			c2.5,3.3,5.6,6.4,8.5,9.7c1.5,1.6,2.9,3.2,4.3,4.9c0.7,0.8,1.4,1.7,2.1,2.5c0.7,0.8,1.3,1.6,2.1,2.2l0.3,0.2l-0.1-0.1
			c0,0,0.1,0.1,0.1,0.1c0.1,0.1,0.1,0.1,0.2,0.1c0.2,0.1,0.4,0.2,0.6,0.2c0.4,0.1,0.9,0.2,1.3,0.1c0.5,0,0.9-0.1,1.4-0.1
			c0.5-0.1,0.9-0.2,1.4-0.3c-0.9,0.5-1.8,0.9-2.7,1.1c-0.5,0.1-1,0.2-1.6,0.1c-0.3,0-0.5-0.1-0.8-0.1c-0.1,0-0.3-0.1-0.4-0.2
			c-0.2-0.1-0.3-0.1-0.5-0.3l0.2,0.1c-1.1-0.5-2-1.3-2.8-2c-0.8-0.7-1.6-1.5-2.4-2.2c-1.6-1.5-3.2-3-4.7-4.5c-3.1-3-6.3-6.1-8.9-9.7
			c-1.3-1.8-2.5-3.8-3.4-5.9c-0.4-1.1-0.8-2.2-1-3.3c-0.2-1.1-0.4-2.3-0.4-3.5c0-1.2,0.1-2.3,0.4-3.5c0.2-0.6,0.5-1.3,1.1-1.8
			c0.5-0.5,1.2-0.7,1.8-0.8c1.3-0.2,2.4,0,3.5,0.2C91.4,216.3,92.5,216.7,93.4,217.2z"/>
		<path class="st21" d="M114.4,251.8c1.4,2.6,2.8,5.2,4.3,7.7c0.8,1.3,1.6,2.5,2.5,3.6c0.4,0.6,0.9,1.2,1.3,1.7l1.4,1.6l-0.8-0.4
			l0.1,0c0,0,0.1,0,0.2,0c0.1,0,0.3,0.1,0.5,0.3c0.2,0.2,0.2,0.4,0.3,0.5c0,0.1,0,0.1,0,0.2l0,0.1l-0.2-0.6c2.1,2.3,4.5,4.4,7.1,6.2
			c2.5,1.8,5.3,3.5,8,5c2.8,1.5,5.6,2.9,8.6,4.2c2.9,1.3,5.8,2.7,8.8,3.9c2.9,1.2,5.9,2.2,8.9,2.7c1.5,0.2,3,0.4,4.6,0.4
			c1.5,0,3.1-0.1,4.6-0.4c6.1-1.1,11.9-4.3,16.2-9.1c-1.7,2.8-4,5.1-6.7,7c-1.3,1-2.8,1.8-4.3,2.5c-1.5,0.7-3.1,1.3-4.7,1.7
			c-3.2,0.8-6.7,1-10,0.6c-3.3-0.5-6.5-1.4-9.6-2.6c-3.1-1.2-6-2.5-8.9-3.8c-2.9-1.4-5.9-2.8-8.7-4.4c-2.8-1.6-5.6-3.4-8.2-5.5
			c-2.6-2.1-5-4.4-7-6.9l-0.2-0.6l0,0c0,0,0,0.1,0,0.2c0,0.1,0.1,0.3,0.3,0.5c0.2,0.2,0.4,0.2,0.5,0.3c0.1,0,0.1,0,0.2,0l0,0
			l-0.8-0.4L121,266c-0.4-0.6-0.8-1.3-1.2-1.9c-0.8-1.3-1.5-2.6-2.1-4C116.3,257.5,115.3,254.7,114.4,251.8z"/>
		<path class="st23" d="M55,440.8c1.7,3.3,3.2,6.6,4.3,10.1c1.1,3.5,1.7,7.4,1.4,11.3c-0.4,3.9-1.6,7.5-3,10.8
			c-1.5,3.3-3.2,6.4-5.1,9.6c-0.2-3.7,0.4-7.4,1.1-10.9c0.7-3.5,1.4-6.8,1.7-10c0.3-3.2,0.1-6.5-0.1-10
			C54.9,448.2,54.5,444.5,55,440.8z"/>
		<path class="st23" d="M92.8,265.9c-1.9,1.7-4,3.4-6.4,4.6c-2.4,1.3-4.9,2.1-7.4,2.8c-5.1,1.3-9.9,2.4-14.5,4.3
			c-4.6,1.8-9,4.1-13,6.8c-2,1.4-4,2.9-5.8,4.5c-1.8,1.6-3.4,3.4-4.6,5.5l-0.1,0.2l0,0c0.1-0.1,0.1-0.2,0.1-0.3l0,0.1l-1.3,2.7
			l-0.3,0.4c0.2-0.2,0.4-0.6,0.3-0.8l-0.1,0.4c-0.9,2.1-1.7,4.1-2.3,6.1c-0.6,2-0.9,4.2-1.2,6.4c-0.2,2.2-0.4,4.4-0.5,6.5l-0.1,3.3
			l0,3.3l0-0.1c0.2,2.1,0.6,4.2,1,6.3c0.4,2,1,4,1.6,6.1c1.3,4,2.6,8.1,3.8,12.3c1.1,4.2,2,8.7,2.1,13.3c0,2.3-0.2,4.7-0.7,7
			c-0.5,2.3-1.2,4.4-1.8,6.4c-0.6,2-1.2,3.9-1.5,5.8c-0.3,1.9-0.5,3.8-0.4,5.8c0.1,3.9,1.1,7.9,2.4,11.8c2.8,7.9,6.5,15.5,12.5,21.6
			l-0.3,0.4c-3.7-2.3-6.9-5.5-9.5-9c-1.3-1.8-2.5-3.6-3.6-5.5c-1.1-1.9-2.1-3.9-3-5.9c-1.9-4-3.2-8.5-3.7-13.1
			c-0.2-2.3-0.2-4.7,0.2-7c0.4-2.3,1-4.5,1.6-6.6c0.6-2.1,1.3-4,1.7-6c0.5-1.9,0.7-3.8,0.8-5.8c0.1-3.9-0.4-8-1.3-12.1
			c-0.4-2.1-0.9-4.1-1.4-6.2c-0.5-2.1-0.9-4.2-1.3-6.4c-0.4-2.1-0.7-4.3-0.9-6.5c-0.2-2.2-0.2-4.4-0.3-6.5l0-0.1l0,0l0.3-3.3
			l0.3-3.3c0.2-2.2,0.4-4.4,0.7-6.6c0.1-1.1,0.3-2.2,0.4-3.3c0.2-1.1,0.3-2.2,0.6-3.3c0.5-2.2,1.2-4.3,1.8-6.5l-0.1,0.4
			c0-0.3,0.2-0.7,0.4-0.9l-0.3,0.4l1-3l0,0.1c0-0.1,0.1-0.3,0.2-0.4l-0.1,0.2c1-2.6,2.6-4.9,4.4-7c1.8-2,3.7-3.9,5.9-5.5
			c4.3-3.3,9.1-5.7,14.2-7.4c2.5-0.8,5.1-1.5,7.7-2c2.6-0.5,5.2-0.8,7.7-1.2c2.5-0.3,4.9-0.8,7.3-1.6c2.3-0.8,4.6-1.9,6.9-3.1
			L92.8,265.9z"/>
		<path class="st23" d="M54.4,419.3c-2.4-0.5-4.4-1.6-6.2-3.1c-1.8-1.4-3.3-3.2-4.5-5c-1.2-1.9-2.2-3.9-2.8-6.1
			c-0.6-2.2-1-4.4-0.8-6.8c1.9,1.6,3.2,3.2,4.5,4.9c1.3,1.7,2.5,3.4,3.6,5.1c1.1,1.7,2.2,3.4,3.2,5.2
			C52.3,415.3,53.4,417.1,54.4,419.3z"/>
		<path class="st23" d="M158.9,462.5c-9.4-1.3-18.6-4.2-27.6-7.4c-8.9-3.3-17.6-7-26.3-10.5c-4.4-1.8-8.7-3.5-13.1-5.1
			c-4.4-1.7-8.9-3.3-13.3-5.2c-4.4-1.9-8.8-3.9-12.9-6.4c-4.1-2.5-8-5.3-11.4-8.7c8.1,5,16.8,8.3,25.8,11.2l13.5,4.3
			c2.3,0.7,4.5,1.5,6.8,2.3c2.2,0.8,4.5,1.7,6.7,2.6c8.8,3.6,17.4,7.6,25.9,11.5C141.5,455.2,150.1,459.1,158.9,462.5z"/>
		<g>
			<path class="st5" d="M144.6,382.6"/>
		</g>
	</g>
</g>
</svg>
