<?xml version="1.0" encoding="utf-8"?>
<!-- Generator: Adobe Illustrator 25.2.3, SVG Export Plug-In . SVG Version: 6.00 Build 0)  -->
<svg version="1.1" id="Livello_6" xmlns="http://www.w3.org/2000/svg" xmlns:xlink="http://www.w3.org/1999/xlink" x="0px" y="0px"
	 viewBox="0 0 529.7 558.8" style="enable-background:new 0 0 529.7 558.8;" xml:space="preserve">
<style type="text/css">
	.st0{clip-path:url(#SVGID_2_);}
	.st1{fill:#F4F3ED;}
	.st2{fill:#7C7C7C;}
	.st3{fill:#FFFFFF;}
	.st4{fill:#F4F4F4;}
	.st5{fill:#999999;}
	.st6{fill:#EDEDED;}
	.st7{opacity:0.1;}
	.st8{fill:#DDC0A6;}
	.st9{fill:#FBD5B5;}
	.st10{fill:none;}
	.st11{fill:#FCF6F0;}
	.st12{fill:#B29D8A;}
	.st13{fill:#00A19A;}
</style>
<g>
	<g>
		<defs>
			<ellipse id="SVGID_1_" cx="264.8" cy="279.4" rx="264.8" ry="279.4"/>
		</defs>
		<clipPath id="SVGID_2_">
			<use xlink:href="#SVGID_1_"  style="overflow:visible;"/>
		</clipPath>
		<g class="st0">
			<path class="st1" d="M659.7,195.8c0,0-238.4-17-439.5,68.8s-289,225.5-289,225.5l203.5,271l590.8-325L659.7,195.8z"/>
			<path class="st2" d="M520.9,390.9l-295,125.5c-3.9,1.6-8.4,0.5-11-2.8L107.8,380.4c-1.3-1.7-2.2-3.7-2.4-5.9l-0.6-6.4
				c-0.1-1.3,0-2.6,0.4-3.8l113.2,140.1c1.8,2.2,4.9,3,7.5,1.9l287.2-121.5L520.9,390.9z"/>
			<path class="st3" d="M513.2,384.8l-63.1,26.7l-199.5,84.4L226,506.3c-2.7,1.1-5.7,0.3-7.5-1.9l-37-45.8l-76.3-94.4
				c0.9-3.3,3.4-6.1,6.8-7.2l251.5-85c2.8-1,6-0.5,8.5,1.2L493.2,369L513.2,384.8z"/>
			<path class="st2" d="M367.6,265.6L337.2,85.5c-0.7-4.3-4.9-7.2-9.2-6.3l-265.5,56c-7.8,1.7-12.8,9.5-10.9,17.2l48.3,199.1
				c1.1,4.6,5.9,7.3,10.4,5.7l254-86.2C366.6,270.4,368,268,367.6,265.6z M351.2,261.5l-234.6,74.1c-2.2,0.7-4.4-0.6-4.9-2.8
				L70.2,155.6c-0.5-2.2,0.9-4.3,3-4.8l248.1-55.7c2.7-0.6,5.3,1.2,5.7,3.8l27,158C354.4,258.9,353.1,260.9,351.2,261.5z"/>
			<path class="st4" d="M351.2,261.5l-234.6,74.1c-2.2,0.7-4.4-0.6-4.9-2.8L70.2,155.6c-0.5-2.2,0.9-4.3,3-4.8l248.1-55.7
				c2.7-0.6,5.3,1.2,5.7,3.8l27,158C354.4,258.9,353.1,260.9,351.2,261.5z"/>
			<polygon class="st5" points="373.8,291.8 139.9,370.7 134.7,364.3 367.6,286.8 			"/>
			<polygon class="st5" points="383.2,299.3 147.9,380.5 141.8,373 375.9,293.4 			"/>
			<polygon class="st5" points="393,307.3 157.1,391.9 149.6,382.6 384.6,300.5 			"/>
			<polygon class="st5" points="403.7,315.9 166.3,403.1 159,394.2 394.5,308.5 			"/>
			<polygon class="st5" points="415.2,325.1 175.5,414.6 167.5,404.6 406.1,317.8 			"/>
			<polygon class="st5" points="428.4,335.8 186.8,428.4 177.2,416.6 417.6,327.1 			"/>
			<path class="st6" d="M423.6,416.1l-86.9,38.5c-3.7,1.6-8,0.8-10.8-2.1l-42.6-43.1c-2.2-2.2-1.4-6,1.5-7.1l85.6-34
				c3-1.2,6.4-0.5,8.8,1.7l45,42.2C425.5,413.2,425.2,415.3,423.6,416.1z"/>
			<g class="st7">
				<path d="M287.7,422.7c-0.2-2.6-0.5-5.2-1-7.8c0.3-1,0.1-2.5,0-3.1c-0.2-1.3-0.3-2.7-0.5-4c-0.1-1.1-0.3-2.2-0.7-3.2
					c0-0.1,0-0.2,0-0.3c-0.1-0.1-0.2-0.2-0.3-0.2c-0.1-0.2-0.3-0.4-0.5-0.6c-0.6-0.6-1.3-0.9-2.1-1.2c-1-0.4-2.1-0.8-3.2-0.8
					c-0.5,0-1,0.1-1.4,0.4c-0.5,0.4-0.7,0.9-0.7,1.5c-0.6,0.2-1.2,0.5-1.7,0.9c-3,2-4.8,5.3-5.7,8.7s-1.1,7-1.6,10.5
					c-0.3,2.4-0.8,4.7-1.3,7.1c0.7-6.9,0.9-13.8,0.8-20.8c-0.1-3.1-0.3-6.1-0.7-9.1c-0.5-3.4-0.2-6.9-0.8-10.3
					c-0.3-1.6-0.7-3.1-1.4-4.5c-1.4-2.5-3.9-3.3-6.7-3.4c-0.6,0-1.2,0-1.7,0.2c-1.4,0.1-2.7,0.5-3.9,1.4c-0.8,0.6-1.5,1.4-2.2,2.3
					c-1.6-4.1-3.4-8.2-5.4-12.2c-0.8-1.6-1.6-3.2-2.7-4.5c-0.7-0.9-1.5-1.7-2.4-2.3c-3.8-2.6-9.2-2-12.8,0.9s-5.4,7.5-5.7,12.1
					c0,0.3,0,0.6,0,0.9c-1.5-0.7-3.1-1.4-4.6-2c-1.6-0.6-3.2-1-4.9-0.9c-4.3,0.2-7.7,4.2-9,8.3c-1.3,4.1-1.3,8.5-2,12.8
					c-1.7-0.6-3.4-1.1-5.4-0.8c-2.8,0.5-5.4,2-7.2,4.2c-3.1,3.6-4.2,8.5-4.6,13.2c-0.6,6.8,0.1,13.7,0.2,20.5
					c0.1,7.6-0.6,15-2.1,22.3l37,45.8c1.8,2.2,4.9,3,7.5,1.9l24.6-10.4c2-2.4,4.1-4.7,6.5-6.4c3.9-2.7,7.6-5.1,10.5-8.9
					c1.7-2.2,3-4.6,4.3-7.1c5.1-9.7,9.2-19.8,12.4-30.2C286.4,436.6,288.1,429.7,287.7,422.7z M246.5,390.1c0,0-0.1,0-0.1,0.1
					c0.1-0.1,0.2-0.1,0.3-0.2C246.6,390,246.6,390,246.5,390.1z"/>
				<path d="M493.2,369c-13.9-4.3-27.4-9.6-40.3-16.5c-7.5-4-14.7-8.6-22-13c-6.5-3.9-13.1-8.8-21-9.3c-0.8,0-1.7,0-2.5-0.1
					c-0.9,0-1.9-0.1-2.8-0.2c-1.3-0.2-2.5-0.7-3.7-1.2c-1.3-0.6-2.6-1.3-3.9-2c-6.8-3.3-14.2-5.1-21.5-6.8c-1.6-0.4-3.2-0.8-4.9-0.6
					c-2.9,0.2-5.3,1.9-7.4,3.9c-0.4-0.1-0.8-0.1-1.2-0.2c-3.5-0.6-7.2-1.1-10.5,0.1c-2.7,1-4.8,3-6.9,5c-4.3,4.1-8.5,8.1-12.8,12.2
					c-2.5,2.3-5,4.8-7.1,7.5c-1.5,1.8-2.7,3.8-3.6,6c-0.2,0.6-0.4,1.2-0.5,1.8c0,0.6,0.1,1.2,0.4,1.7c0.2,0.4,0.5,0.8,0.8,1.2
					c-0.8,0.6-1.7,1.3-2.5,1.9c-2.3,1.8-4.6,3.7-6.9,5.6c0.3,0.9,0.9,1.6,1.5,2.2c1.8,1.7,4.7,2.5,7.3,2.3c3.5-0.3,6.7-1.9,9.9-3.2
					c0,0.6,0.1,1.2,0.3,1.7c0.5,1.1,1.4,1.8,2.3,2.4c3.5,2.5,8,3.7,12,5.1c5.1,1.9,10.1,4.2,14.9,6.9c2.8,1.5,5.2,3.1,8.1,4.1
					c1.9,0.7,3.7,1.8,5.4,2.7c1.3,0.7,3.7,1.3,4.7,2.3c16.9,8.4,34.3,16.9,53.1,18.4c5.9,0.5,11.9,0.2,17.8,0.4l63.1-26.7L493.2,369
					z M352.1,341.3c0.1-0.1,0.3-0.3,0.5-0.4s0.5-0.1,0.8,0c1.5,0.3,3.1,0.6,4.6,1c-2.3,0.3-4.7,0.5-7,0.7
					C351.3,342.2,351.7,341.7,352.1,341.3z M353.3,360c1-0.2,2-0.4,3-0.6c6-0.8,12.1,0.5,18,1.7c1.9,0.4,3.8,0.8,5.5,1.7
					c4.6,2.3,7.1,7.1,9.9,11.5C376.9,372.3,365.8,363.8,353.3,360z"/>
			</g>
			<g>
				<path class="st8" d="M248.7,357.6c-0.6,0.8-1.2,1.6-1.9,2.3c-1.8,1.9-4.3,3.1-6.8,3.4c0.3-5.2,1.1-10.3,1.2-15.5
					c0-2.3-0.1-4.6-0.5-6.9c1.1,1.4,1.9,3,2.7,4.5C245.3,349.4,247.1,353.5,248.7,357.6z"/>
				<path class="st9" d="M282.8,414.8c-3.2,10.4-7.4,20.5-12.4,30.2c-1.3,2.4-2.6,4.9-4.3,7.1c-2.9,3.8-6.7,6.2-10.5,8.9
					c-4.3,3-7.6,7.8-10.8,11.8c-4.7,5.9-9.3,11.8-14,17.8c-16,20.3-32,40.6-46.7,61.9c-8.8,1.7-17.9,2.4-26.8,2.4
					c-17.6,0.1-35.4-1.9-52.1-7.4c13.6-15.4,27.6-30.5,40-46.9c20.3-27,37.3-58.1,36.9-92.8c-0.1-6.8-0.8-13.7-0.2-20.5
					c0.4-4.7,1.6-9.6,4.6-13.2c1.8-2.1,4.5-3.7,7.2-4.2c2-0.3,3.7,0.2,5.4,0.8c0.8-4.2,0.7-8.7,2-12.8c1.4-4.1,4.7-8.1,9-8.3
					c1.7-0.1,3.3,0.4,4.9,0.9c1.6,0.6,3.1,1.2,4.6,2c0-0.3,0-0.6,0-0.9c0.3-4.6,2.1-9.2,5.7-12.1c3.6-2.9,9-3.5,12.8-0.9
					c0.9,0.6,1.7,1.5,2.4,2.3c0.4,2.3,0.5,4.6,0.5,6.9c-0.1,3.6-0.5,7.2-0.8,10.9c-0.2,2.5,2.5,4.2,4.6,2.8c0.7-0.5,1.3-1,1.9-1.6
					c0.7-0.7,1.3-1.5,1.9-2.3c0.7-0.8,1.3-1.6,2.2-2.3c1.1-0.8,2.5-1.3,3.9-1.4c0.5-0.2,1.2-0.2,1.7-0.2c2.8,0.1,5.3,0.9,6.7,3.4
					c0.8,1.4,1.1,3,1.4,4.5c0.6,3.4,0.4,6.9,0.8,10.3c0.4,3,0.6,6,0.7,9.1c0.2,6.9-0.1,13.9-0.8,20.8c0.6-2.3,1-4.7,1.3-7.1
					c0.5-3.5,0.7-7.1,1.6-10.5s2.7-6.8,5.7-8.7c0.5-0.4,1.1-0.7,1.7-0.9c0,0.3,0,0.6,0,0.9c0,1.5,0,3,0.6,4.4c0.7,1.7,2.2,2.9,3.7,4
					c0.7,0.5,3.6,3.4,4.4,3.2c0.4-0.1,0.6-0.4,0.7-0.8c0.4,2.6,0.8,5.1,1,7.8C286.5,401.1,284.9,408.1,282.8,414.8z"/>
				<path class="st10" d="M283.7,375.5c0.1,0.1,0.2,0.1,0.3,0.2c0,0.1,0,0.2,0,0.3"/>
				<path class="st11" d="M285.2,386.4c-0.1,0.4-0.3,0.8-0.7,0.8c-0.8,0.2-3.7-2.7-4.4-3.2c-1.5-1.1-3-2.3-3.7-4
					c-0.6-1.4-0.6-2.9-0.6-4.4c0-0.3,0-0.6,0-0.9c0.1-0.6,0.2-1.2,0.7-1.5c0.4-0.3,0.9-0.4,1.4-0.4c1.1,0,2.2,0.4,3.2,0.8
					c0.8,0.3,1.5,0.6,2.1,1.2c0.2,0.2,0.4,0.4,0.5,0.6s0.2,0.3,0.3,0.5c0.5,1,0.6,2.1,0.7,3.2c0.2,1.3,0.3,2.7,0.5,4
					C285.2,383.8,285.4,385.4,285.2,386.4z"/>
				<path class="st11" d="M312.5,342.6c-0.2,1.6-1.7,2.4-2.8,3.5c-0.9,0.8-1.8,1.6-2.7,2.5c-0.1,0.1-0.2,0.2-0.3,0.3
					c-0.7-0.6-1.2-1.4-1.5-2.2c2.3-1.9,4.6-3.8,6.9-5.6C312.5,341.4,312.6,342.1,312.5,342.6z"/>
				<path class="st11" d="M317.6,333.1c-0.5,1.8-1.8,3.4-3.4,4.4c-0.1,0.1-0.3,0.2-0.4,0.2c-0.3-0.5-0.4-1.1-0.4-1.7
					s0.2-1.2,0.5-1.8c0.9-2.2,2.1-4.2,3.6-6C318,329.9,318.1,331.6,317.6,333.1z"/>
				<path class="st9" d="M393.7,309.2c-1.8-0.2-3.5-0.3-5.3-0.5c-3.5-0.3-6.9-0.9-10.4-1.4c-7.4-1.2-14.7-2.3-22.1-3.5
					c2.1-2,4.6-3.7,7.4-3.9c1.6-0.1,3.3,0.2,4.9,0.6c7.3,1.7,14.8,3.4,21.5,6.8C391.1,307.9,392.4,308.6,393.7,309.2z"/>
				<path class="st9" d="M548.1,364.8c-35-7.9-70.8-14.9-102.4-31.8c-7.5-4-14.7-8.6-22-13c-6.5-3.9-13.1-8.8-21-9.3
					c-0.8,0-1.7,0-2.5-0.1c-0.9,0-1.9-0.1-2.8-0.2c-1.3-0.2-2.5-0.7-3.7-1.2c-1.8-0.2-3.5-0.3-5.3-0.5c-3.5-0.3-6.9-0.9-10.4-1.4
					c-7.4-1.2-14.7-2.3-22.1-3.5c-0.4-0.1-0.8-0.1-1.2-0.2c-3.5-0.6-7.2-1.1-10.5,0.1c-2.7,1-4.8,3-6.9,5
					c-4.3,4.1-8.5,8.1-12.8,12.2c-2.5,2.4-5,4.8-7.1,7.5c0.5,1.5,0.6,3.2,0.1,4.8c-0.5,1.8-1.8,3.4-3.4,4.4
					c-0.1,0.1-0.3,0.2-0.4,0.2c0.2,0.4,0.5,0.8,0.8,1.2c-0.8,0.6-1.7,1.3-2.5,1.9c0.3,0.5,0.5,1.1,0.4,1.7c-0.2,1.6-1.7,2.4-2.8,3.5
					c-0.9,0.8-1.8,1.6-2.7,2.5c-0.1,0.1-0.2,0.2-0.3,0.3c1.8,1.7,4.7,2.5,7.3,2.3c3.5-0.3,6.7-1.9,9.9-3.2c0-0.8,0.2-1.6,0.5-2.3
					c0.6-1.5,1.4-2.8,2.5-3.9c0.7-0.7,1.5-1.3,2.4-1.5c0.5-0.1,1,0,1.5,0c0.3,0.1,0.6,0.1,0.8,0.2c2.5,0.6,5,1.3,7.5,2.1
					c0,0,0,0,0.1,0c0.8,0.2,1.6,0.5,2.1,1.1c0.5,0.5,0.8,1.2,1,1.9c0.6,2.4,0.1,4.9-0.9,7.1c-0.8,1.6-1.8,3.1-3,4.5
					c5.1,1.9,10.1,4.2,14.9,6.9c2.8,1.5,5.2,3.1,8.1,4.2c1.9,0.7,3.7,1.8,5.4,2.7c1.3,0.7,3.7,1.3,4.7,2.3
					c16.9,8.3,34.3,16.8,53.1,18.4c7.8,0.6,15.6,0,23.4,0.7c13.2,1.1,25.8,5.7,38.2,10.4c16.6,6.3,33.1,12.8,49.6,19.5
					c5.8-1.6,11.5-3.7,16.9-6.2c17-8.2,31.6-20.8,44-34.9c1-1.1,1.9-2.2,2.9-3.3C582.7,373,565.4,368.8,548.1,364.8z M346,340.4
					c1-0.2,2-0.4,3-0.6c6-0.8,12.1,0.5,18,1.7c1.9,0.4,3.8,0.8,5.5,1.7c4.6,2.3,7.1,7.1,9.9,11.5C369.6,352.7,358.5,344.2,346,340.4
					z"/>
				<path class="st11" d="M341.7,352.5c-0.8,1.6-1.8,3.1-3,4.5c-4.1-1.4-8.5-2.6-12-5.1c-0.9-0.7-1.9-1.4-2.3-2.4
					c-0.2-0.5-0.3-1.1-0.3-1.7c0-0.8,0.2-1.6,0.5-2.3c0.6-1.5,1.4-2.8,2.5-3.9c0.7-0.7,1.5-1.3,2.4-1.5c0.5-0.1,1,0,1.5,0
					c0.3,0.1,0.6,0.1,0.8,0.2c2.5,0.6,5,1.3,7.5,2.1c0,0,0,0,0.1,0c0.8,0.2,1.6,0.5,2.1,1.1c0.5,0.5,0.8,1.2,1,1.9
					C343.1,347.8,342.7,350.3,341.7,352.5z"/>
			</g>
			<path class="st12" d="M357.9,351.2c0.1,1.6-0.3,3.1-0.8,4.6c-0.6,1.4-1.3,2.8-2.4,4c0.4-1.5,1-2.9,1.5-4.3
				C356.6,354,357.2,352.6,357.9,351.2z"/>
			<path class="st12" d="M276.4,390.7c1.1-0.3,2.3-0.2,3.4,0.2c1.1,0.4,2.1,1.1,2.7,2.1c-1.1-0.4-2-0.8-3-1.2
				C278.5,391.5,277.5,391.2,276.4,390.7z"/>
			<path class="st12" d="M338.8,356.8c3,0.7,6,1.6,8.9,2.7s5.8,2.3,8.6,3.7c1.4,0.7,2.7,1.3,4.1,1.9c0.7,0.3,1.3,0.5,2,0.7
				c0.8,0.2,1.6,0.6,2.4,0.9s1.5,0.7,2.1,1c0.7,0.3,1.4,0.7,1.9,0.9c0.6,0.2,1.4,0.5,2.2,0.8c0.8,0.4,1.7,0.7,2.8,1.7l-0.7-0.5
				c6.5,3.1,12.9,6.3,19.2,9.6c6.4,3.2,12.9,6.3,19.8,8.1c3.4,0.9,7,1.5,10.5,1.8s7.1,0.3,10.7,0.1c3.6-0.2,7.2-0.4,10.9-0.5
				c3.7-0.1,7.4,0.1,11.1,0.6c7.4,1,14.5,2.9,21.5,5.2c3.5,1.1,6.9,2.4,10.3,3.7c3.4,1.3,6.7,2.7,10,4.1l9.9,4.3
				c3.3,1.5,6.6,2.9,9.9,4.5c6.6,3,13.1,6.2,19.5,9.6l-0.2,0.6c-7-1.9-13.9-4-20.8-6.2c-3.4-1.1-6.8-2.3-10.3-3.4l-10.2-3.6
				c-3.4-1.2-6.8-2.5-10.1-3.8l-10-3.7c-6.7-2.5-13.4-4.6-20.2-6c-3.4-0.7-6.9-1.2-10.4-1.5s-7.1-0.5-10.7-0.8
				c-7.3-0.4-14.6-1.4-21.6-3c-7.1-1.6-14.2-3.5-21.1-5.9c-3.4-1.2-6.8-2.5-10.1-4c-3.3-1.5-6.5-3.1-9.7-4.8l-0.7-0.3v-0.2
				c0-0.1-0.6-0.4-1.1-0.7c-0.6-0.3-1.3-0.5-2.1-0.9c-0.9-0.4-1.6-0.8-2.2-1.2l-1.9-1.1c-0.6-0.4-1.2-0.6-1.9-0.9
				c-0.8-0.3-1.5-0.7-2.2-1.1c-1.4-0.8-2.8-1.6-4.1-2.5l-3.9-2.4c-1.3-0.8-2.6-1.6-3.9-2.4c-2.6-1.5-5.3-3-8-4.5L338.8,356.8z"/>
			<path class="st12" d="M393.7,310.2c-1.8,0-3.6,0-5.4-0.1l-5.4-0.4l-5.4-0.5l-5.4-0.7c-3.6-0.4-7.2-1-10.7-1.5l-5.4-0.8
				c-1.8-0.3-3.6-0.6-5.2-0.7c-1.7-0.2-3.4-0.2-4.9,0.2c-1.5,0.3-2.9,1.1-4.3,2.1s-2.7,2.2-4,3.4c-1.3,1.2-2.7,2.4-4,3.6
				c-2.7,2.4-5.4,4.8-8.1,7.1c-2.8,2.3-5.5,4.6-8,7.3c2-3.1,4.5-5.7,7-8.4c2.5-2.6,5-5.2,7.5-7.8c1.3-1.3,2.5-2.6,3.8-3.8
				c1.3-1.3,2.6-2.6,4.1-3.8c1.5-1.2,3.3-2.2,5.3-2.7s4-0.5,5.8-0.3c1.9,0.2,3.7,0.5,5.5,0.8l5.3,0.9c3.5,0.6,7.1,1.2,10.6,1.9
				l5.3,1l5.3,1l5.3,1C390.2,309.6,392,309.9,393.7,310.2z"/>
			<g>
				<path class="st12" d="M331,340.1c1.1-0.9,2.5-1.5,4-1.8s3-0.4,4.4-0.4c3,0.2,5.9,0.7,8.7,1.5c2.8,0.8,5.5,1.8,8.2,3
					c2.6,1.1,5.2,2.4,7.8,3.6c5.1,2.5,10.1,4.9,15.4,6.5c2.6,0.8,5.3,1.3,8.2,1.7c2.8,0.4,5.8,0.9,8.4,2.3c-2.8-0.5-5.6-0.4-8.5-0.3
					c-1.4,0-2.9,0.1-4.4,0c-1.4-0.1-3-0.3-4.4-0.6c-5.8-1.1-11.3-3.4-16.4-5.9l-7.6-3.8c-2.5-1.3-5-2.4-7.6-3.4
					c-0.6-0.3-1.3-0.5-1.9-0.8l-2-0.7c-1.3-0.4-2.7-0.8-4-1.1C336.5,339.3,333.7,339.1,331,340.1z"/>
			</g>
			<path class="st12" d="M183.8,552.3c4.3-7.8,9.1-15.3,14.2-22.6l3.8-5.4l4-5.4c2.6-3.6,5.4-7,8.2-10.4
				c5.7-6.8,11.8-13.3,17.4-20.1c5.6-6.9,10.9-13.9,16-21.2c1.3-1.8,2.7-3.6,4.4-5.3c0.8-0.8,1.7-1.6,2.7-2.4l2.6-2
				c1.7-1.3,3.4-2.6,4.8-4.1s2.6-3,3.7-4.8s2-3.7,3-5.7s1.9-3.9,2.8-5.9c1.8-4,3.5-8,5.1-12.1s3.1-8.2,4.4-12.3
				c1.3-4.1,2.5-8.3,3.1-12.5c0.3-2.1,0.4-4.2,0.4-6.4c0-2.2,0-4.4-0.1-6.5c-0.1-2.2-0.3-4.4-0.6-6.5c-0.3-2.1-0.7-4.3-1.6-6.3
				l0.4-0.3c1.4,1.9,2.1,4,2.8,6.2c0.6,2.2,1.1,4.4,1.5,6.6s0.7,4.4,0.9,6.7c0.3,2.2,0.3,4.6,0.2,6.9c-0.1,2.3-0.4,4.6-0.8,6.8
				c-0.4,2.2-1,4.5-1.5,6.6c-1.2,4.4-2.5,8.6-4.1,12.8c-1.6,4.2-3.3,8.4-5.3,12.4c-1,2-2,4-3.1,6s-2.2,4-3.5,5.9s-2.9,3.9-4.6,5.5
				c-1.8,1.6-3.7,3-5.6,4.2l-2.8,1.8c-0.8,0.5-1.7,1.1-2.5,1.8c-1.6,1.3-3.1,2.9-4.6,4.5c-5.8,6.7-11.5,13.5-16.9,20.5
				s-10.2,14.5-15.4,21.7c-2.6,3.6-5.2,7.1-8,10.6l-4.1,5.2L201,532c-5.5,6.9-11,13.8-16.9,20.5L183.8,552.3z"/>
			<path class="st12" d="M196.5,383.6c-0.2-1.2-0.2-2.3-0.1-3.4c0.1-1.1,0.2-2.2,0.4-3.2c0.2-1.1,0.5-2.1,0.9-3.2
				c0.4-1,0.8-2.1,1.4-3.1l0,0v-0.1v0.1l0,0c0.2,1.1,0.2,2.3,0.1,3.4c-0.1,1.1-0.2,2.2-0.5,3.3c-0.2,1.1-0.5,2.1-0.9,3.2
				C197.5,381.5,197.1,382.6,196.5,383.6z"/>
			<path class="st12" d="M212.1,372.8c3.2-1.9,5.9-3.8,7.3-12.2c0.4-2.7,0.3-5.4,0.3-8.1"/>
		</g>
	</g>
</g>
<path class="st13" d="M211.2,231.4c-1.3,0-2.5-0.5-3.5-1.4l-17.2-16.1c-2.1-1.9-2.2-5.2-0.2-7.2c1.9-2.1,5.2-2.2,7.2-0.2l13.6,12.7
	l38.4-37.4c2-2,5.3-1.9,7.2,0.1c2,2,1.9,5.3-0.1,7.2l-41.9,40.8C213.8,230.9,212.5,231.4,211.2,231.4z"/>
<path class="st13" d="M223.6,265.6c-33.2,0-60.2-27-60.2-60.2s27-60.2,60.2-60.2s60.2,27,60.2,60.2S256.7,265.6,223.6,265.6z
	 M223.6,155.5c-27.5,0-49.9,22.4-49.9,49.9c0,27.5,22.4,49.9,49.9,49.9s49.9-22.4,49.9-49.9C273.5,177.9,251.1,155.5,223.6,155.5z"
	/>
</svg>
